<svg width="400" height="280" viewBox="0 0 400 280" fill="none" xmlns="http://www.w3.org/2000/svg">
<path d="M363.561 88.7852L365.285 76.894C368.609 74.8817 371.688 72.6864 374.458 70.3081C377.29 67.9299 379.63 65.3077 381.477 62.4417C383.324 59.5756 384.493 56.4656 384.986 53.0507C385.355 50.4285 385.047 48.2942 384.062 46.6477C383.077 45.0013 381.415 44.0256 379.199 43.7207C377.167 43.4158 375.505 43.7817 374.15 44.7574C372.796 45.733 371.996 47.1966 371.749 49.087C371.626 49.9407 371.626 50.7944 371.688 51.5872C371.749 52.3799 371.872 53.2336 371.996 54.1483L359.867 55.063C359.621 53.7215 359.436 52.4409 359.375 51.2213C359.313 50.0017 359.375 48.7211 359.559 47.4405C360.298 42.1962 362.514 38.2325 366.208 35.5493C369.902 32.8662 374.766 31.9515 380.861 32.8052C387.017 33.6589 391.635 35.9762 394.528 39.757C397.484 43.5377 398.469 48.4772 397.607 54.6362C397.053 58.6609 395.821 62.1978 393.913 65.4297C392.004 68.6007 389.542 71.4668 386.525 74.0889C383.508 76.6501 380.122 79.0893 376.305 81.2846L375.012 90.4926L363.561 88.7852ZM360.36 108.238L362.145 95.737L374.828 97.5054L373.042 110.006L360.36 108.238Z" stroke="black" stroke-miterlimit="10"/>
<path d="M295.394 141.953C295.394 141.953 255.128 142.512 253.874 145.307C252.619 148.165 246.912 182.519 246.536 194.384C246.159 206.25 245.971 214.077 247.225 215.506C248.48 216.935 267.985 228.117 267.985 228.117C267.985 228.117 258.828 259.862 261.714 260.918C264.599 261.974 282.097 266.385 293.387 266.571C304.676 266.758 315.777 266.758 316.655 266.758C317.533 266.758 346.384 267.814 356.356 265.515C366.391 263.217 369.402 263.03 369.402 259.117C369.402 255.203 366.893 250.419 366.705 249.55C366.517 248.68 373.479 181.463 369.59 165C365.639 148.538 360.433 142.139 356.544 141.083C352.593 140.027 324.495 140.71 324.495 140.71L295.394 141.953Z" fill="#8F8B54" stroke="black" stroke-miterlimit="10" stroke-linecap="round" stroke-linejoin="round"/>
<path d="M316.847 156.241C315.53 156.986 314.15 157.732 312.645 158.353" stroke="black" stroke-miterlimit="10" stroke-linecap="round" stroke-linejoin="round"/>
<path d="M331.772 142.823C331.772 142.823 326.88 149.781 318.727 155.061" stroke="black" stroke-miterlimit="10" stroke-linecap="round" stroke-linejoin="round"/>
<path d="M329.388 149.904C329.388 149.904 325.687 155.061 322.426 156.8" stroke="black" stroke-miterlimit="10" stroke-linecap="round" stroke-linejoin="round"/>
<path d="M303.797 206.747L302.73 203.454" stroke="black" stroke-miterlimit="10" stroke-linecap="round" stroke-linejoin="round"/>
<path d="M309.571 224.39L304.867 210.04" stroke="black" stroke-miterlimit="10" stroke-linecap="round" stroke-linejoin="round"/>
<path d="M310.949 224.763L315.653 217.495" stroke="black" stroke-miterlimit="10" stroke-linecap="round" stroke-linejoin="round"/>
<path d="M321.547 220.476L332.774 207.927" stroke="black" stroke-miterlimit="10" stroke-linecap="round" stroke-linejoin="round"/>
<path d="M292.449 259.738L316.721 266.758" stroke="black" stroke-miterlimit="10" stroke-linecap="round" stroke-linejoin="round"/>
<path d="M285.359 257.688L289.562 258.93" stroke="black" stroke-miterlimit="10" stroke-linecap="round" stroke-linejoin="round"/>
<path d="M295.146 63.1178C295.146 63.1178 282.477 60.2602 280.093 63.4285C277.71 66.6589 282.477 69.7029 281.787 70.3862C281.097 71.0696 266.421 78.5244 267.612 85.7928C268.804 93.0612 278.714 100.516 279.09 102.566C279.403 104.616 267.612 105.299 266.107 108.343C264.539 111.387 262.344 125.8 275.139 130.521C287.933 135.243 303.989 127.291 308.442 127.291C312.895 127.291 317.348 135.926 322.429 135.429C327.572 134.932 330.457 131.205 330.457 131.205C330.457 131.205 335.725 138.473 343.439 135.429C351.154 132.385 359.997 121.7 356.234 118.532C352.471 115.301 348.206 114.307 350.966 111.45C353.725 108.592 359.307 100.951 358.492 94.3657C357.614 87.7807 349.774 87.2837 346.701 85.2337C343.628 83.1836 350.088 79.8289 349.962 74.2379C349.774 68.6468 345.697 59.3283 324.875 53.0539C304.052 46.7795 293.766 49.8235 292.763 55.104C291.759 60.2602 295.146 63.1178 295.146 63.1178Z" fill="black" stroke="black" stroke-miterlimit="10" stroke-linecap="round" stroke-linejoin="round"/>
<path d="M297.406 117.413C297.406 117.413 293.141 143.816 292.953 144.685C292.764 145.555 300.479 153.134 310.89 151.767C321.302 150.401 326.633 143.505 326.633 143.505L323.371 117.289C323.371 117.289 314.465 121.513 309.009 121.327C303.552 121.141 297.406 117.413 297.406 117.413Z" fill="white" stroke="black" stroke-miterlimit="10" stroke-linecap="round" stroke-linejoin="round"/>
<path d="M295.645 131.578L313.645 128.161L297.401 117.414L295.645 131.578Z" fill="black" stroke="black" stroke-miterlimit="10" stroke-linecap="round" stroke-linejoin="round"/>
<path d="M287.932 94.1792C287.932 94.1792 284.921 90.3897 283.541 95.1731C282.162 99.9566 288.183 105.734 288.183 105.734L287.932 94.1792Z" fill="white" stroke="black" stroke-miterlimit="10" stroke-linecap="round" stroke-linejoin="round"/>
<path d="M331.087 94.1792C331.087 94.1792 334.097 90.3897 335.477 95.1731C336.857 99.9566 330.836 105.734 330.836 105.734L331.087 94.1792Z" fill="white" stroke="black" stroke-miterlimit="10" stroke-linecap="round" stroke-linejoin="round"/>
<path d="M297.401 70.3237C297.401 70.3237 288.809 78.5861 287.554 81.071C286.3 83.5559 286.802 111.884 288.182 114.617C289.562 117.351 303.297 127.974 305.555 128.844C307.813 129.713 312.893 130.583 316.907 128.595C320.921 126.607 330.517 116.481 331.52 113.872C332.524 111.263 331.27 81.568 330.642 78.7725C330.015 75.9148 314.9 65.7887 308.565 65.2917C302.105 64.7326 297.401 70.3237 297.401 70.3237Z" fill="white" stroke="black" stroke-miterlimit="10" stroke-linecap="round" stroke-linejoin="round"/>
<path d="M304.17 65.2298C304.17 65.2298 317.09 76.9089 326.372 77.3438C335.655 77.7786 335.655 77.7786 335.655 77.7786C335.655 77.7786 315.271 75.1073 308.937 61.3781C308.937 61.4402 301.912 55.6007 304.17 65.2298Z" fill="black" stroke="black" stroke-miterlimit="10" stroke-linecap="round" stroke-linejoin="round"/>
<path d="M311.387 88.3394L312.39 100.826" stroke="black" stroke-miterlimit="10" stroke-linecap="round" stroke-linejoin="round"/>
<path d="M313.396 103.436C313.396 103.436 311.138 106.79 309.507 106.79C307.877 106.79 306.246 104.926 306.246 104.926" stroke="black" stroke-miterlimit="10" stroke-linecap="round" stroke-linejoin="round"/>
<path d="M299.781 107.535C299.781 107.535 302.666 112.257 306.429 112.505C310.193 112.753 314.144 111.635 314.144 111.635" stroke="black" stroke-miterlimit="10" stroke-linecap="round" stroke-linejoin="round"/>
<path d="M312.897 86.3512C312.897 86.3512 317.288 83.1208 319.044 82.0026C320.8 80.8843 326.382 82.9965 326.382 82.9965C326.382 82.9965 322.117 80.6358 319.859 80.2631C317.601 79.8904 312.96 83.1208 312.646 84.6117C312.27 86.1027 311.141 85.7299 312.897 86.3512Z" fill="black" stroke="black" stroke-miterlimit="10" stroke-linecap="round" stroke-linejoin="round"/>
<path d="M303.863 86.9727C303.863 86.9727 303.236 85.2332 301.103 85.109C298.971 84.9848 289.626 87.4697 291.256 87.4697C292.887 87.4697 299.598 87.3454 301.354 87.3454C303.11 87.3454 303.863 86.9727 303.863 86.9727Z" fill="black" stroke="black" stroke-miterlimit="10" stroke-linecap="round" stroke-linejoin="round"/>
<path d="M325.371 94.0552C325.371 94.0552 322.11 94.8007 319.601 94.6764C317.092 94.5522 314.834 93.8067 315.838 94.9249C316.841 96.0431 318.848 97.0371 321.984 96.4159C325.12 95.7946 326.249 95.1734 325.371 94.0552Z" fill="black"/>
<path d="M302.734 94.0552C302.734 94.0552 299.473 94.8007 296.964 94.6764C294.455 94.5522 292.197 93.8067 293.201 94.9249C294.204 96.0431 296.211 97.0371 299.347 96.4159C302.483 95.7946 303.612 95.1734 302.734 94.0552Z" fill="black"/>
<path d="M261.219 165.31C261.219 165.31 264.982 144.81 266.675 142.822C268.369 140.772 286.996 125.738 288.062 124.682C289.066 123.688 296.404 112.692 296.78 113.997C297.094 115.363 295.902 121.265 293.707 124.495C291.512 127.726 288.439 131.577 288.439 131.577C288.439 131.577 299.916 134.435 300.544 135.118C301.233 135.802 305.122 144.25 305.31 145.244C305.686 147.046 305.122 148.972 303.617 149.158C302.237 149.282 293.017 144.561 293.017 144.561L285.679 145.555C285.679 145.555 280.411 152.016 276.773 153.196C273.198 154.377 271.818 154.563 271.818 154.563L272.006 167.112L261.219 165.31Z" fill="white" stroke="black" stroke-miterlimit="10" stroke-linecap="round" stroke-linejoin="round"/>
<path d="M288.941 135.491C288.941 135.491 298.914 136.796 299.541 137.293C300.168 137.79 305.311 145.307 305.311 145.307" stroke="black" stroke-miterlimit="10" stroke-linecap="round" stroke-linejoin="round"/>
<path d="M289.633 140.026C289.633 140.026 299.542 142.263 300.295 142.884C301.048 143.505 304.936 147.916 304.936 147.916" stroke="black" stroke-miterlimit="10" stroke-linecap="round" stroke-linejoin="round"/>
<path d="M305.057 226.315C305.057 226.315 291.635 223.83 291.07 223.643C290.506 223.457 281.035 220.599 279.781 220.102C278.526 219.543 263.348 216.934 262.596 217.99C261.906 219.046 261.153 225.259 260.965 225.818C260.777 226.377 259.334 228.862 259.711 230.229C260.087 231.657 259.711 234.142 259.711 234.142C259.711 234.142 259.523 242.467 261.655 242.653C263.788 242.84 265.795 234.826 265.795 234.826C265.795 234.826 268.868 236.627 275.077 236.938C281.286 237.248 287.433 234.267 287.433 234.267L304.053 238.18L305.057 226.315Z" fill="white" stroke="black" stroke-miterlimit="10" stroke-linecap="round" stroke-linejoin="round"/>
<path d="M258.646 161.707L276.646 164.937L275.956 176.12C275.956 176.12 279.97 177.983 281.162 188.979C282.353 199.975 285.866 225.445 284.987 227.371C284.109 229.235 278.778 237.497 266.297 237.994C253.816 238.491 247.043 227.185 245.851 223.582C244.659 219.978 251.057 196.372 251.37 194.322C251.684 192.272 253.44 178.17 255.008 175.809C256.576 173.386 258.457 171.833 258.457 171.833L258.646 161.707Z" fill="#8F8B54" stroke="black" stroke-miterlimit="10" stroke-linecap="round" stroke-linejoin="round"/>
<path d="M269.871 174.566C270.875 174.691 271.941 174.753 272.882 174.753L269.871 174.566Z" fill="#8F8B54"/>
<path d="M269.871 174.566C270.875 174.691 271.941 174.753 272.882 174.753" stroke="black" stroke-miterlimit="10" stroke-linecap="round" stroke-linejoin="round"/>
<path d="M258.461 171.833C258.461 171.833 261.66 173.014 265.611 173.821L258.461 171.833Z" fill="#8F8B54"/>
<path d="M258.461 171.833C258.461 171.833 261.66 173.014 265.611 173.821" stroke="black" stroke-miterlimit="10" stroke-linecap="round" stroke-linejoin="round"/>
<path d="M357.681 167.298L355.862 213.021C355.862 213.021 353.918 213.207 353.165 214.077C352.475 214.947 351.911 216.003 351.911 216.003C351.911 216.003 333.848 216.686 325.255 219.171C316.663 221.656 310.955 224.638 310.955 224.638L303.053 224.452L301.422 245.014L311.959 245.387C311.959 245.387 317.164 248.431 340.747 250.543C364.392 252.656 375.305 253.215 377.813 250.357C380.322 247.499 381.388 243.089 381.765 240.79C382.141 238.492 386.406 224.327 386.406 203.765C386.406 183.202 366.9 153.445 362.636 146.674C358.371 139.964 353.855 140.461 350.844 141.207" fill="#8F8B54"/>
<path d="M357.681 167.298L355.862 213.021C355.862 213.021 353.918 213.207 353.165 214.077C352.475 214.947 351.911 216.003 351.911 216.003C351.911 216.003 333.848 216.686 325.255 219.171C316.663 221.656 310.955 224.638 310.955 224.638L303.053 224.452L301.422 245.014L311.959 245.387C311.959 245.387 317.164 248.431 340.747 250.543C364.392 252.656 375.305 253.215 377.813 250.357C380.322 247.499 381.388 243.089 381.765 240.79C382.141 238.492 386.406 224.327 386.406 203.765C386.406 183.202 366.9 153.445 362.636 146.674C358.371 139.964 353.855 140.461 350.844 141.207" stroke="black" stroke-miterlimit="10" stroke-linecap="round" stroke-linejoin="round"/>
<path d="M366.902 209.915L355.926 213.021L366.274 203.454" stroke="black" stroke-miterlimit="10" stroke-linecap="round" stroke-linejoin="round"/>
<path d="M373.797 207.927L370.285 208.921" stroke="black" stroke-miterlimit="10" stroke-linecap="round" stroke-linejoin="round"/>
<path d="M351.973 216.065C351.973 216.065 363.45 216.935 368.091 218.737" stroke="black" stroke-miterlimit="10" stroke-linecap="round" stroke-linejoin="round"/>
<path d="M369.727 226.129C370.291 226.688 370.793 227.247 371.295 227.93" stroke="black" stroke-miterlimit="10" stroke-linecap="round" stroke-linejoin="round"/>
<path d="M356.617 218.55C356.617 218.55 362.325 219.917 367.53 224.141" stroke="black" stroke-miterlimit="10" stroke-linecap="round" stroke-linejoin="round"/>
<path d="M310.828 226.688L310.954 243.897" stroke="black" stroke-miterlimit="10" stroke-linecap="round" stroke-linejoin="round"/>
<path d="M302.242 239.609H309.706" stroke="black" stroke-miterlimit="10" stroke-linecap="round" stroke-linejoin="round"/>
<path d="M303.996 229.546L307.069 229.359" stroke="black" stroke-miterlimit="10" stroke-linecap="round" stroke-linejoin="round"/>
</svg>
