<svg width="400" height="280" viewBox="0 0 400 280" fill="none" xmlns="http://www.w3.org/2000/svg">
<path d="M398.472 241.031C397.684 241.622 396.503 241.425 395.912 240.638L390.398 232.958C389.807 232.17 390.004 230.988 390.792 230.398C391.58 229.807 392.761 230.004 393.352 230.792L398.866 238.471C399.457 239.259 399.26 240.441 398.472 241.031Z" fill="white"/>
<path d="M397.29 242.016C396.502 242.016 395.715 241.622 395.321 241.031L389.807 233.352C389.413 232.761 389.216 232.17 389.413 231.579C389.61 230.988 389.807 230.398 390.398 230.004C391.579 229.216 393.155 229.413 393.942 230.595L399.456 238.275C399.85 238.865 400.047 239.456 399.85 240.047C399.653 240.638 399.456 241.228 398.865 241.622C398.472 242.016 397.881 242.016 397.29 242.016ZM391.776 230.398C391.579 230.398 391.185 230.398 390.989 230.595C390.792 230.792 390.595 231.185 390.398 231.382C390.398 231.776 390.398 232.17 390.595 232.367L396.109 240.047C396.502 240.638 397.29 240.835 397.881 240.441C398.078 240.244 398.275 239.85 398.472 239.653C398.472 239.259 398.472 238.865 398.275 238.668L392.761 230.988C392.564 230.595 392.17 230.398 391.776 230.398Z" fill="black"/>
<path d="M396.304 244.576C395.516 245.167 394.335 244.97 393.744 244.182L388.23 236.502C387.639 235.714 387.836 234.533 388.624 233.942C389.412 233.351 390.593 233.548 391.184 234.336L396.698 242.016C397.289 242.804 397.092 243.985 396.304 244.576Z" fill="white"/>
<path d="M395.122 245.56C394.334 245.56 393.547 245.167 393.153 244.576L387.639 236.896C387.245 236.305 387.048 235.714 387.245 235.124C387.442 234.533 387.639 233.942 388.23 233.548C388.821 233.154 389.411 232.957 390.002 233.154C390.593 233.351 391.184 233.548 391.577 234.139L397.091 241.819C397.485 242.41 397.682 243 397.485 243.591C397.288 244.182 397.091 244.773 396.501 245.167C396.304 245.364 395.713 245.56 395.122 245.56ZM389.608 233.942C389.411 233.942 389.018 233.942 388.821 234.139C388.624 234.336 388.427 234.73 388.23 234.927C388.23 235.321 388.23 235.714 388.427 235.911L393.941 243.591C394.334 244.182 395.122 244.379 395.713 243.985C395.91 243.788 396.107 243.394 396.304 243.197C396.304 242.804 396.304 242.41 396.107 242.213L390.593 234.533C390.396 234.336 390.002 234.139 389.805 233.942H389.608Z" fill="black"/>
<path d="M392.956 246.151C392.169 246.742 390.987 246.545 390.396 245.757L384.883 238.077C384.292 237.29 384.489 236.108 385.276 235.517C386.064 234.927 387.246 235.123 387.836 235.911L393.35 243.591C393.941 244.379 393.744 245.56 392.956 246.151Z" fill="white"/>
<path d="M391.776 247.136C390.988 247.136 390.201 246.742 389.807 246.151L384.293 238.471C383.505 237.29 383.702 235.714 384.884 234.927C386.065 234.139 387.641 234.336 388.428 235.517L393.942 243.197C394.73 244.379 394.533 245.954 393.351 246.742C392.761 246.939 392.367 247.136 391.776 247.136ZM386.262 235.517C386.065 235.517 385.671 235.517 385.474 235.714C384.884 236.108 384.687 236.896 385.081 237.487L390.594 245.167C390.988 245.757 391.776 245.954 392.367 245.56C392.564 245.364 392.761 244.97 392.957 244.773C392.957 244.379 392.957 243.985 392.761 243.788L387.247 236.108C387.05 235.714 386.656 235.517 386.262 235.517Z" fill="black"/>
<path d="M299.122 129.205C293.602 129.205 289.289 124.202 289.289 118.165C289.289 112.127 293.774 107.125 299.122 107.125C304.642 107.125 308.954 112.127 308.954 118.165C308.954 124.202 304.469 129.205 299.122 129.205ZM299.122 107.987C294.119 107.987 289.979 112.645 289.979 118.165C289.979 123.857 294.119 128.342 299.122 128.342C304.124 128.342 308.264 123.685 308.264 118.165C308.092 112.472 304.124 107.987 299.122 107.987Z" fill="black"/>
<path d="M342.422 133C338.799 133 334.832 129.55 333.452 124.375C332.589 121.615 332.589 118.683 333.452 116.268C334.314 113.853 335.867 112.128 337.937 111.61C340.007 111.093 342.249 111.61 344.147 113.163C346.044 114.715 347.597 117.13 348.459 119.89C350.184 125.755 348.114 131.448 343.974 132.655C343.457 133 342.939 133 342.422 133ZM339.489 112.3C338.972 112.3 338.627 112.3 338.109 112.473C336.384 112.99 335.004 114.543 334.142 116.613C333.452 118.855 333.452 121.615 334.142 124.203C335.694 129.55 340.007 133.173 343.802 132.138C347.597 131.103 349.322 125.755 347.769 120.408C347.079 117.82 345.527 115.405 343.802 114.025C342.249 112.818 340.869 112.3 339.489 112.3Z" fill="black"/>
<path d="M299.745 132C299.745 132 297.886 132 294.865 132.416C284.408 133.248 260.24 136.992 255.592 149.471C249.55 165.486 225.847 219.978 240.952 235.161C256.057 250.344 256.754 249.097 259.543 250.552C262.331 252.008 270.929 255.336 270.929 255.336L392 257L379.451 191.692C379.451 191.692 370.621 162.158 363.882 155.295C357.143 148.431 332.278 135.536 332.278 135.536L318.8 132H299.745Z" fill="#8F8B54"/>
<path d="M389.642 253.044L272.591 251.446H272.366C271.917 251.246 264.053 248.25 261.357 246.852C260.908 246.652 260.683 246.452 260.234 246.452C258.212 245.653 255.741 244.455 243.159 232.071C237.318 226.278 236.644 214.094 241.137 195.718C244.732 180.537 251.247 164.358 255.067 154.771C255.965 152.573 256.639 150.776 257.313 149.178C262.031 136.994 285.621 133.398 295.731 132.399C298.652 132.2 300.449 132 300.449 132H318.872C318.872 132 318.872 132 319.097 132L332.127 135.396C332.127 135.396 332.127 135.396 332.352 135.396C333.251 135.995 356.391 147.979 362.907 154.371C369.422 160.963 377.735 188.327 377.959 189.526L390.091 252.245C390.091 252.444 390.091 252.444 389.867 252.644C390.091 253.044 389.867 253.044 389.642 253.044ZM272.815 250.647L389.193 252.245L377.061 190.125C376.836 189.326 368.523 161.762 362.233 155.37C355.942 148.978 333.251 137.193 331.903 136.594L318.872 133.198H300.449C300.225 133.198 298.427 133.198 295.731 133.598C285.846 134.597 262.705 137.992 258.212 149.577C257.538 151.175 256.864 152.973 255.965 155.17C248.551 174.146 230.803 218.488 243.833 231.471C256.19 243.855 258.437 244.854 260.459 245.653C260.908 245.853 261.133 246.053 261.582 246.252C264.278 247.451 271.917 250.247 272.815 250.647Z" fill="#8F8B54"/>
<path d="M306.722 122.091L302.98 137.451C302.98 137.451 302.98 146.312 316.568 147.1C330.156 147.887 327.793 137.254 327.793 137.254L325.233 127.408L306.722 122.091Z" fill="white"/>
<path d="M317.75 147.494C317.357 147.494 316.963 147.494 316.569 147.494C302.588 146.706 302.391 137.451 302.391 137.254V137.057L306.132 121.894C306.132 121.697 306.329 121.697 306.329 121.5C306.526 121.5 306.723 121.303 306.723 121.5L324.84 126.62C325.037 126.62 325.233 126.817 325.233 127.014L327.793 137.057C327.793 137.254 328.778 141.389 326.021 144.54C324.643 146.509 321.689 147.494 317.75 147.494ZM303.375 137.254C303.375 138.041 304.163 145.721 316.372 146.312C320.704 146.509 323.658 145.524 325.43 143.555C327.597 140.995 326.809 137.254 326.809 137.254L324.249 127.605L306.92 122.682L303.375 137.254Z" fill="black"/>
<path d="M315.977 48.4429C315.977 48.4429 290.771 53.7597 289.59 77.3903C289.59 77.3903 290.574 90.3871 292.937 94.1286C292.937 94.1286 287.424 98.8547 292.544 104.172C297.664 109.488 298.845 108.504 298.845 108.504C298.845 108.504 300.814 122.091 313.22 128.196C325.626 134.3 327.399 132.725 327.399 132.725C327.399 132.725 335.866 132.922 341.577 120.91C347.091 108.898 353.392 94.5224 355.558 84.6764C356.937 78.5718 355.952 64.9842 348.469 59.0766C338.426 51.5936 339.411 48.8367 315.977 48.4429Z" fill="white"/>
<path d="M326.218 133.71C324.446 133.71 320.704 132.922 312.827 128.983C301.603 123.47 298.846 112.048 298.255 109.488C297.271 109.488 295.498 108.504 291.954 104.762C290.378 102.99 289.591 101.218 289.788 99.2483C289.985 96.6884 291.56 94.9161 292.151 94.1284C289.985 89.7961 289 77.9808 289 77.3901C289.591 64.984 296.877 57.698 302.981 53.7595C309.48 49.4273 315.584 48.0488 315.978 48.0488C315.978 48.0488 315.978 48.0488 316.175 48.0488C336.064 48.2457 338.624 50.4119 344.729 55.7288C345.91 56.7134 347.289 57.8949 348.864 59.0764C356.741 65.181 357.529 79.1624 356.15 85.2669C354.378 93.3407 349.652 105.156 342.169 121.697C336.852 132.922 328.975 133.71 327.793 133.906C327.006 133.71 326.809 133.71 326.218 133.71ZM298.649 108.11H298.846C299.043 108.11 299.24 108.307 299.24 108.504C299.24 108.701 301.209 121.697 313.221 127.802C324.249 133.316 326.415 132.528 326.612 132.331C326.809 132.331 326.809 132.134 327.006 132.134C327.4 132.134 335.276 131.937 340.593 120.713C348.273 104.368 352.802 92.553 354.575 84.6762C355.953 78.9654 355.165 65.3779 347.879 59.6672C346.304 58.4856 344.926 57.3041 343.744 56.3195C337.836 51.3965 335.473 49.2304 315.978 49.0334C315.387 49.2304 309.48 50.6088 303.572 54.5472C295.301 60.061 290.772 67.7409 290.182 77.1932C290.182 77.9808 291.166 90.1899 293.332 93.7345C293.529 93.9314 293.529 94.3253 293.135 94.5222C293.135 94.5222 290.969 96.4914 290.772 99.2483C290.772 100.824 291.363 102.399 292.742 103.974C296.68 108.307 298.255 108.307 298.255 108.307C298.452 108.11 298.649 108.11 298.649 108.11Z" fill="black"/>
<path d="M281.582 264.911L283.127 261.601L278.493 255.201L265.694 255.643C264.37 255.643 263.928 257.408 265.032 258.07L280.258 266.676C280.699 266.897 281.141 267.118 281.582 267.118H388.168C389.492 267.118 390.374 266.235 390.374 264.911V264.69H281.582V264.911Z" fill="white"/>
<path d="M388.606 268H282.021C281.359 268 280.917 267.78 280.255 267.559L265.029 258.953C264.146 258.511 263.925 257.629 264.146 256.746C264.367 255.863 265.029 255.201 266.132 255.201L278.931 254.76C279.152 254.76 279.373 254.76 279.593 254.98L284.007 261.38C284.227 261.601 284.227 261.821 284.007 262.042L282.903 264.249H391.034C391.475 264.249 391.696 264.469 391.696 264.911V265.131C391.475 266.676 390.151 268 388.606 268ZM278.49 255.863L266.132 256.304C265.691 256.304 265.47 256.746 265.47 256.746C265.47 256.966 265.47 257.187 265.911 257.408L281.138 266.014C281.359 266.235 281.8 266.235 282.021 266.235H388.606C389.268 266.235 389.93 265.793 390.151 265.131H281.579C281.359 265.131 281.138 264.911 280.917 264.911C280.697 264.69 280.697 264.469 280.917 264.249L282.462 261.38L278.49 255.863Z" fill="black"/>
<path d="M386.854 263.48H291.741C290.56 263.48 289.969 262.693 289.969 261.708L290.166 260.92L388.823 261.314V261.511C388.823 262.496 388.035 263.48 386.854 263.48Z" fill="black"/>
<path d="M278.143 252.822L277.844 253.331L291.766 261.51L292.065 261L278.143 252.822Z" fill="black"/>
<path d="M331.986 38.2009L330.237 37.919C331.257 36.3687 332.277 34.1136 330.237 32.7041C327.03 30.449 323.678 33.9726 323.678 33.9726C323.678 33.9726 323.678 33.9726 322.512 32.4223C321.346 30.8719 319.159 30.449 317.41 31.8585C316.244 32.7041 316.244 34.5364 316.39 35.8049L315.37 35.664C313.475 35.3821 311.58 36.6506 311.289 38.4828C310.997 39.8923 311.726 41.1607 312.892 41.8655C312.018 42.1474 311.289 42.8521 310.997 43.8387C310.706 45.2481 311.58 46.6575 313.038 47.0804L313.912 47.2213C313.912 47.2213 313.184 48.3489 313.475 49.1945C313.767 50.0402 314.495 51.0268 314.495 51.0268L329.945 53L331.257 49.7583H331.403C332.86 50.0402 334.318 49.1945 334.755 47.7851C335.047 46.5166 334.318 45.1072 333.006 44.6843C334.026 44.2615 334.755 43.2749 334.901 42.1474C335.192 40.1741 333.881 38.4828 331.986 38.2009Z" fill="black"/>
<path d="M355.165 84.8728C356.543 78.7682 355.558 65.1807 348.075 59.273C338.229 51.5931 339.411 48.6393 315.977 48.4424C315.977 48.4424 290.771 53.7593 289.59 77.3898C289.59 77.3898 290.378 90.1897 292.741 94.1281C293.922 93.9312 295.104 93.9312 295.497 94.325C298.057 96.885 296.876 100.626 299.436 100.43C301.799 100.036 302.193 97.8696 303.965 91.3712C305.737 84.6759 309.085 81.5251 318.34 86.4482C327.596 91.3712 331.731 87.2358 331.731 87.2358C331.731 87.2358 337.442 81.3282 338.623 75.4206C338.623 75.4206 341.577 87.0389 346.106 88.8112C350.438 90.5835 350.438 90.5835 350.438 90.5835L344.137 114.411C348.863 104.171 353.392 92.9465 355.165 84.8728Z" fill="black"/>
<path d="M318.142 116.577C313.022 116.577 308.887 112.048 308.887 106.338C308.887 100.627 313.022 96.0977 318.142 96.0977C323.262 96.0977 327.397 100.627 327.397 106.338C327.397 111.851 323.262 116.577 318.142 116.577ZM318.142 96.8853C313.613 96.8853 309.871 101.021 309.871 106.338C309.871 111.458 313.613 115.79 318.142 115.79C322.671 115.79 326.413 111.654 326.413 106.338C326.61 101.021 322.868 96.8853 318.142 96.8853Z" fill="black"/>
<path d="M341.969 116.577C336.653 116.577 332.32 112.048 332.32 106.338C332.32 100.627 336.653 96.0977 341.969 96.0977C347.286 96.0977 351.619 100.627 351.619 106.338C351.619 111.851 347.286 116.577 341.969 116.577ZM341.969 96.8853C337.243 96.8853 333.305 101.021 333.305 106.338C333.305 111.458 337.243 115.79 341.969 115.79C346.696 115.79 350.634 111.654 350.634 106.338C350.634 101.021 346.696 96.8853 341.969 96.8853Z" fill="black"/>
<path d="M302.651 97.3229L302.051 98.103L309.54 103.87L310.14 103.09L302.651 97.3229Z" fill="black"/>
<path d="M326.02 101.808L334.093 101.021L333.109 103.187C333.109 103.187 332.518 102.005 330.155 102.399C327.989 102.793 326.61 103.974 326.61 103.974L326.02 101.808Z" fill="black"/>
<path d="M333.249 196.046L310.8 195.061C310.603 195.061 310.209 194.864 310.209 194.667C310.209 194.47 304.695 166.704 303.514 158.827C302.332 151.148 298 135.985 298 135.788C298 135.394 298 135.197 298.394 135C298.788 135 298.985 135 299.182 135.394C299.182 135.591 303.514 150.754 304.695 158.434C305.877 165.72 310.603 189.941 311.391 193.682L332.855 194.47C333.249 191.123 335.021 173.203 335.021 164.735C334.824 155.48 331.674 139.529 331.477 139.332C331.477 138.938 331.674 138.742 331.87 138.545C332.264 138.545 332.461 138.742 332.658 138.938C332.658 139.135 336.006 155.086 336.203 164.538C336.4 173.793 334.037 194.667 334.037 194.864C333.84 195.652 333.643 196.046 333.249 196.046Z" fill="#242424"/>
<path d="M313.023 128.392C310.069 127.014 307.903 125.242 305.934 123.272C305.934 123.272 314.795 137.845 321.097 139.42C327.398 140.995 327.201 133.119 327.201 133.119C327.201 133.119 325.626 134.694 313.023 128.392Z" fill="black"/>
<path d="M297.648 179.198C296.269 182.94 295.284 186.878 294.891 190.817C294.891 191.407 295.678 191.407 295.678 190.817C296.072 186.878 297.057 183.137 298.435 179.395C298.632 179.001 297.844 178.607 297.648 179.198Z" fill="black"/>
<path d="M362.433 190.62C360.858 185.303 359.085 179.986 358.692 174.275C358.692 173.684 357.707 173.684 357.707 174.275C358.101 179.986 359.676 185.5 361.449 190.816C361.645 191.407 362.63 191.21 362.433 190.62Z" fill="black"/>
<path d="M288.59 251.074C286.818 249.302 286.424 246.742 286.621 244.182C286.818 241.425 287.802 238.668 288.787 236.108C288.984 235.518 288.196 235.321 287.999 235.911C286.227 240.834 284.061 247.333 288.196 251.665C288.393 252.256 288.984 251.665 288.59 251.074Z" fill="black"/>
<path d="M287.998 218.779C287.801 218.779 287.604 218.779 287.407 218.779C287.21 218.779 287.21 218.779 287.013 218.976C285.044 219.37 283.272 219.961 281.303 220.355C280.318 220.552 279.334 220.945 278.152 221.142C277.167 221.339 275.986 221.733 274.804 221.536C274.411 221.536 274.214 221.339 274.017 220.945C273.82 220.552 274.017 220.158 274.214 219.961C274.607 219.173 275.592 218.779 276.38 218.582C278.152 217.992 280.121 217.598 281.894 217.204C282.878 216.81 283.863 216.416 284.847 216.022C285.832 215.432 286.62 215.038 287.801 215.038C288.392 215.038 288.392 214.25 287.801 214.053C286.817 214.053 285.832 214.447 285.044 214.841C284.06 215.432 283.272 215.826 282.09 216.219C280.121 216.81 277.955 217.007 275.986 217.992C275.001 218.385 274.214 218.779 273.623 219.567C273.229 220.355 273.032 221.339 273.623 221.93C274.214 222.718 275.592 222.718 276.577 222.521C277.758 222.324 278.94 221.93 279.924 221.733C282.484 221.142 285.241 220.355 287.801 219.764C288.589 219.567 288.589 218.779 287.998 218.779Z" fill="#6D6A4B"/>
<path d="M318.734 107.716C320.039 107.716 321.097 106.217 321.097 104.368C321.097 102.519 320.039 101.021 318.734 101.021C317.429 101.021 316.371 102.519 316.371 104.368C316.371 106.217 317.429 107.716 318.734 107.716Z" fill="black"/>
<path d="M340.789 107.716C342.094 107.716 343.152 106.217 343.152 104.368C343.152 102.519 342.094 101.021 340.789 101.021C339.484 101.021 338.426 102.519 338.426 104.368C338.426 106.217 339.484 107.716 340.789 107.716Z" fill="black"/>
<path d="M386.264 261.905H292.529C289.969 261.905 288 259.739 288 257.376V194.952C288 192.392 290.166 190.226 292.529 190.226H386.461C389.021 190.226 390.99 192.392 390.99 194.952V257.179C390.99 259.739 388.824 261.905 386.264 261.905ZM292.529 191.604C290.56 191.604 288.985 193.179 288.985 195.149V257.376C288.985 259.345 290.56 260.92 292.529 260.92H386.461C388.43 260.92 390.005 259.345 390.005 257.376V194.952C390.005 192.982 388.43 191.407 386.461 191.407H292.529V191.604Z" fill="black"/>
<path d="M386.264 261.905H292.529C289.969 261.905 288 259.739 288 257.376V194.952C288 192.392 290.166 190.226 292.529 190.226H386.461C389.021 190.226 390.99 192.392 390.99 194.952V257.179C390.99 259.739 388.824 261.905 386.264 261.905Z" fill="black"/>
<path d="M282.965 187.221C280.762 187.221 279 188.989 279 191.198V261.023C279 263.232 280.762 265 282.965 265H388.035C390.238 265 392 263.232 392 261.023V190.977C392 188.768 390.238 187 388.035 187H282.965V187.221Z" fill="#242424"/>
<path d="M318.733 102.596C320.702 102.596 322.474 102.793 324.246 103.187C322.868 101.808 320.899 101.021 318.733 101.021C316.566 101.021 314.597 101.808 313.219 103.187C314.794 102.793 316.763 102.596 318.733 102.596Z" fill="black"/>
<path d="M341.182 102.399C342.955 102.399 344.727 102.596 346.302 102.99C345.121 101.808 343.349 101.021 341.182 101.021C339.213 101.021 337.441 101.808 336.062 102.99C337.638 102.596 339.213 102.399 341.182 102.399Z" fill="black"/>
<path d="M321.688 96.2943C321.688 96.2943 323.657 92.9466 321.097 92.9466C318.537 92.9466 313.614 92.5527 311.054 94.1281C308.494 95.7035 309.479 96.6881 309.479 96.6881C309.479 96.6881 313.024 94.522 316.371 94.7189C319.522 95.1127 321.688 96.2943 321.688 96.2943Z" fill="black"/>
<path d="M338.622 96.8851C338.622 96.8851 336.653 93.5374 339.213 93.5374C341.772 93.5374 346.696 93.1436 349.255 94.7189C351.815 96.2943 350.831 97.2789 350.831 97.2789C350.831 97.2789 347.286 95.1128 343.939 95.3097C340.591 95.7035 338.622 96.8851 338.622 96.8851Z" fill="black"/>
<path d="M331.929 121.5C330.354 122.485 328.384 122.879 326.612 122.682C324.84 122.485 323.264 121.5 322.083 120.319C321.492 119.728 320.704 120.516 321.295 121.106C324.249 124.257 328.975 124.848 332.717 122.485C333.307 122.091 332.717 121.106 331.929 121.5Z" fill="black"/>
<path d="M331.926 113.427C331.729 113.23 331.335 113.427 331.139 113.624C330.942 114.018 330.745 114.608 330.351 115.002C330.154 115.396 329.76 115.593 329.366 115.593C328.972 115.593 328.776 115.396 328.382 115.199C327.988 115.002 327.988 114.608 327.791 114.214C327.791 113.821 327.397 113.624 327.003 113.821C326.609 113.821 326.609 114.214 326.609 114.608C326.806 115.79 327.988 116.774 329.169 116.774C330.548 116.774 331.532 115.396 332.123 114.214C332.32 114.018 332.32 113.624 331.926 113.427Z" fill="black"/>
<path d="M317.948 104.171C318.383 104.171 318.736 103.818 318.736 103.383C318.736 102.948 318.383 102.596 317.948 102.596C317.513 102.596 317.16 102.948 317.16 103.383C317.16 103.818 317.513 104.171 317.948 104.171Z" fill="white"/>
<path d="M348.061 104.171C348.496 104.171 348.849 103.818 348.849 103.383C348.849 102.948 348.496 102.596 348.061 102.596C347.626 102.596 347.273 102.948 347.273 103.383C347.273 103.818 347.626 104.171 348.061 104.171Z" fill="white"/>
</svg>
