<svg width="400" height="280" viewBox="0 0 400 280" fill="none" xmlns="http://www.w3.org/2000/svg">
<path d="M237.454 241.031C238.242 241.622 239.423 241.425 240.014 240.638L245.528 232.958C246.118 232.17 245.921 230.988 245.134 230.398C244.346 229.807 243.165 230.004 242.574 230.792L237.06 238.471C236.469 239.259 236.666 240.441 237.454 241.031Z" fill="white"/>
<path d="M238.636 242.016C239.423 242.016 240.211 241.622 240.605 241.031L246.119 233.352C246.513 232.761 246.71 232.17 246.513 231.579C246.316 230.988 246.119 230.398 245.528 230.004C244.346 229.216 242.771 229.413 241.983 230.595L236.47 238.275C236.076 238.865 235.879 239.456 236.076 240.047C236.273 240.638 236.47 241.228 237.06 241.622C237.454 242.016 238.045 242.016 238.636 242.016ZM244.15 230.398C244.346 230.398 244.74 230.398 244.937 230.595C245.134 230.792 245.331 231.185 245.528 231.382C245.528 231.776 245.528 232.17 245.331 232.367L239.817 240.047C239.423 240.638 238.636 240.835 238.045 240.441C237.848 240.244 237.651 239.85 237.454 239.653C237.454 239.259 237.454 238.865 237.651 238.668L243.165 230.988C243.362 230.595 243.756 230.398 244.15 230.398Z" fill="black"/>
<path d="M239.622 244.576C240.409 245.167 241.591 244.97 242.182 244.182L247.696 236.502C248.286 235.714 248.089 234.533 247.302 233.942C246.514 233.351 245.333 233.548 244.742 234.336L239.228 242.016C238.637 242.804 238.834 243.985 239.622 244.576Z" fill="white"/>
<path d="M240.804 245.56C241.591 245.56 242.379 245.167 242.773 244.576L248.287 236.896C248.681 236.305 248.877 235.714 248.681 235.124C248.484 234.533 248.287 233.942 247.696 233.548C247.105 233.154 246.514 232.957 245.924 233.154C245.333 233.351 244.742 233.548 244.348 234.139L238.835 241.819C238.441 242.41 238.244 243 238.441 243.591C238.638 244.182 238.835 244.773 239.425 245.167C239.622 245.364 240.213 245.56 240.804 245.56ZM246.318 233.942C246.514 233.942 246.908 233.942 247.105 234.139C247.302 234.336 247.499 234.73 247.696 234.927C247.696 235.321 247.696 235.714 247.499 235.911L241.985 243.591C241.591 244.182 240.804 244.379 240.213 243.985C240.016 243.788 239.819 243.394 239.622 243.197C239.622 242.804 239.622 242.41 239.819 242.213L245.333 234.533C245.53 234.336 245.924 234.139 246.121 233.942H246.318Z" fill="black"/>
<path d="M242.969 246.151C243.757 246.742 244.939 246.545 245.529 245.757L251.043 238.077C251.634 237.29 251.437 236.108 250.649 235.517C249.862 234.927 248.68 235.123 248.089 235.911L242.576 243.591C241.985 244.379 242.182 245.56 242.969 246.151Z" fill="white"/>
<path d="M244.15 247.136C244.938 247.136 245.725 246.742 246.119 246.151L251.633 238.471C252.421 237.29 252.224 235.714 251.042 234.927C249.861 234.139 248.285 234.336 247.498 235.517L241.984 243.197C241.196 244.379 241.393 245.954 242.574 246.742C243.165 246.939 243.559 247.136 244.15 247.136ZM249.664 235.517C249.861 235.517 250.254 235.517 250.451 235.714C251.042 236.108 251.239 236.896 250.845 237.487L245.331 245.167C244.938 245.757 244.15 245.954 243.559 245.56C243.362 245.364 243.165 244.97 242.968 244.773C242.968 244.379 242.968 243.985 243.165 243.788L248.679 236.108C248.876 235.714 249.27 235.517 249.664 235.517Z" fill="black"/>
<path d="M336.804 129.205C342.324 129.205 346.637 124.202 346.637 118.165C346.637 112.127 342.152 107.125 336.804 107.125C331.284 107.125 326.972 112.127 326.972 118.165C326.972 124.202 331.457 129.205 336.804 129.205ZM336.804 107.987C341.807 107.987 345.947 112.645 345.947 118.165C345.947 123.857 341.807 128.342 336.804 128.342C331.802 128.342 327.662 123.685 327.662 118.165C327.834 112.472 331.802 107.987 336.804 107.987Z" fill="black"/>
<path d="M293.504 133C297.127 133 301.094 129.55 302.474 124.375C303.337 121.615 303.337 118.683 302.474 116.268C301.612 113.853 300.059 112.128 297.989 111.61C295.919 111.093 293.677 111.61 291.779 113.163C289.882 114.715 288.329 117.13 287.467 119.89C285.742 125.755 287.812 131.448 291.952 132.655C292.469 133 292.987 133 293.504 133ZM296.437 112.3C296.954 112.3 297.299 112.3 297.817 112.473C299.542 112.99 300.922 114.543 301.784 116.613C302.474 118.855 302.474 121.615 301.784 124.203C300.232 129.55 295.919 133.173 292.124 132.138C288.329 131.103 286.604 125.755 288.157 120.408C288.847 117.82 290.399 115.405 292.124 114.025C293.677 112.818 295.057 112.3 296.437 112.3Z" fill="black"/>
<path d="M336.181 132C336.181 132 338.04 132 341.061 132.416C351.518 133.248 375.686 136.992 380.334 149.471C386.375 165.486 410.078 219.978 394.974 235.161C379.869 250.344 379.172 249.097 376.383 250.552C373.594 252.008 364.996 255.336 364.996 255.336L243.926 257L256.474 191.692C256.474 191.692 265.305 162.158 272.044 155.295C278.783 148.431 303.648 135.536 303.648 135.536L317.126 132H336.181Z" fill="#8F8B54"/>
<path d="M246.284 253.044L363.335 251.446H363.56C364.009 251.246 371.872 248.25 374.568 246.852C375.018 246.652 375.242 246.452 375.692 246.452C377.714 245.653 380.185 244.455 392.766 232.071C398.608 226.278 399.282 214.094 394.788 195.718C391.194 180.537 384.678 164.358 380.859 154.771C379.96 152.573 379.286 150.776 378.612 149.178C373.894 136.994 350.304 133.398 340.194 132.399C337.274 132.2 335.476 132 335.476 132H317.054C317.054 132 317.054 132 316.829 132L303.798 135.396C303.798 135.396 303.798 135.396 303.574 135.396C302.675 135.995 279.534 147.979 273.019 154.371C266.504 160.963 258.191 188.327 257.967 189.526L245.835 252.245C245.835 252.444 245.835 252.444 246.059 252.644C245.835 253.044 246.059 253.044 246.284 253.044ZM363.11 250.647L246.733 252.245L258.865 190.125C259.09 189.326 267.402 161.762 273.693 155.37C279.984 148.978 302.675 137.193 304.023 136.594L317.054 133.198H335.476C335.701 133.198 337.498 133.198 340.194 133.598C350.08 134.597 373.22 137.992 377.714 149.577C378.388 151.175 379.062 152.973 379.96 155.17C387.374 174.146 405.123 218.488 392.092 231.471C379.736 243.855 377.489 244.854 375.467 245.653C375.018 245.853 374.793 246.053 374.344 246.252C371.648 247.451 364.009 250.247 363.11 250.647Z" fill="#8F8B54"/>
<path d="M329.204 122.091L332.945 137.451C332.945 137.451 332.945 146.312 319.358 147.1C305.77 147.887 308.133 137.254 308.133 137.254L310.693 127.408L329.204 122.091Z" fill="white"/>
<path d="M318.175 147.494C318.569 147.494 318.963 147.494 319.357 147.494C333.338 146.706 333.535 137.451 333.535 137.254V137.057L329.794 121.894C329.794 121.697 329.597 121.697 329.597 121.5C329.4 121.5 329.203 121.303 329.203 121.5L311.086 126.62C310.889 126.62 310.692 126.817 310.692 127.014L308.132 137.057C308.132 137.254 307.148 141.389 309.905 144.54C311.283 146.509 314.237 147.494 318.175 147.494ZM332.551 137.254C332.551 138.041 331.763 145.721 319.554 146.312C315.221 146.509 312.268 145.524 310.495 143.555C308.329 140.995 309.117 137.254 309.117 137.254L311.677 127.605L329.006 122.682L332.551 137.254Z" fill="black"/>
<path d="M319.949 48.4429C319.949 48.4429 345.154 53.7597 346.336 77.3903C346.336 77.3903 345.351 90.3871 342.988 94.1286C342.988 94.1286 348.502 98.8547 343.382 104.172C338.262 109.488 337.081 108.504 337.081 108.504C337.081 108.504 335.111 122.091 322.705 128.196C310.299 134.3 308.527 132.725 308.527 132.725C308.527 132.725 300.059 132.922 294.349 120.91C288.835 108.898 282.534 94.5224 280.367 84.6764C278.989 78.5718 279.974 64.9842 287.457 59.0766C297.5 51.5936 296.515 48.8367 319.949 48.4429Z" fill="white"/>
<path d="M309.708 133.71C311.48 133.71 315.221 132.922 323.098 128.983C334.323 123.47 337.08 112.048 337.67 109.488C338.655 109.488 340.427 108.504 343.972 104.762C345.547 102.99 346.335 101.218 346.138 99.2483C345.941 96.6884 344.366 94.9161 343.775 94.1284C345.941 89.7961 346.926 77.9808 346.926 77.3901C346.335 64.984 339.049 57.698 332.944 53.7595C326.446 49.4273 320.341 48.0488 319.948 48.0488C319.948 48.0488 319.948 48.0488 319.751 48.0488C299.862 48.2457 297.302 50.4119 291.197 55.7288C290.016 56.7134 288.637 57.8949 287.062 59.0764C279.185 65.181 278.397 79.1624 279.776 85.2669C281.548 93.3407 286.274 105.156 293.757 121.697C299.074 132.922 306.951 133.71 308.132 133.906C308.92 133.71 309.117 133.71 309.708 133.71ZM337.277 108.11H337.08C336.883 108.11 336.686 108.307 336.686 108.504C336.686 108.701 334.717 121.697 322.704 127.802C311.677 133.316 309.511 132.528 309.314 132.331C309.117 132.331 309.117 132.134 308.92 132.134C308.526 132.134 300.649 131.937 295.332 120.713C287.653 104.368 283.123 92.553 281.351 84.6762C279.973 78.9654 280.76 65.3779 288.046 59.6672C289.622 58.4856 291 57.3041 292.182 56.3195C298.089 51.3965 300.452 49.2304 319.948 49.0334C320.538 49.2304 326.446 50.6088 332.354 54.5472C340.624 60.061 345.153 67.7409 345.744 77.1932C345.744 77.9808 344.76 90.1899 342.594 93.7345C342.397 93.9314 342.397 94.3253 342.79 94.5222C342.79 94.5222 344.957 96.4914 345.153 99.2483C345.153 100.824 344.563 102.399 343.184 103.974C339.246 108.307 337.67 108.307 337.67 108.307C337.474 108.11 337.277 108.11 337.277 108.11Z" fill="black"/>
<path d="M354.344 264.911L352.799 261.601L357.433 255.201L370.232 255.643C371.556 255.643 371.998 257.408 370.894 258.07L355.668 266.676C355.226 266.897 354.785 267.118 354.344 267.118H247.758C246.434 267.118 245.551 266.235 245.551 264.911V264.69H354.344V264.911Z" fill="white"/>
<path d="M247.32 268H353.905C354.567 268 355.009 267.78 355.671 267.559L370.897 258.953C371.78 258.511 372 257.629 371.78 256.746C371.559 255.863 370.897 255.201 369.794 255.201L356.995 254.76C356.774 254.76 356.553 254.76 356.333 254.98L351.919 261.38C351.698 261.601 351.698 261.821 351.919 262.042L353.022 264.249H244.892C244.451 264.249 244.23 264.469 244.23 264.911V265.131C244.451 266.676 245.775 268 247.32 268ZM357.436 255.863L369.794 256.304C370.235 256.304 370.456 256.746 370.456 256.746C370.456 256.966 370.456 257.187 370.014 257.408L354.788 266.014C354.567 266.235 354.126 266.235 353.905 266.235H247.32C246.658 266.235 245.996 265.793 245.775 265.131H354.347C354.567 265.131 354.788 264.911 355.009 264.911C355.229 264.69 355.229 264.469 355.009 264.249L353.464 261.38L357.436 255.863Z" fill="black"/>
<path d="M249.072 263.48H344.185C345.366 263.48 345.957 262.693 345.957 261.708L345.76 260.92L247.103 261.314V261.511C247.103 262.496 247.89 263.48 249.072 263.48Z" fill="black"/>
<path d="M357.783 252.822L358.082 253.331L344.16 261.51L343.86 261L357.783 252.822Z" fill="black"/>
<path d="M303.94 38.2009L305.689 37.919C304.669 36.3687 303.648 34.1136 305.689 32.7041C308.896 30.449 312.248 33.9726 312.248 33.9726C312.248 33.9726 312.248 33.9726 313.414 32.4223C314.58 30.8719 316.766 30.449 318.515 31.8585C319.681 32.7041 319.681 34.5364 319.536 35.8049L320.556 35.664C322.451 35.3821 324.346 36.6506 324.637 38.4828C324.929 39.8923 324.2 41.1607 323.034 41.8655C323.908 42.1474 324.637 42.8521 324.929 43.8387C325.22 45.2481 324.346 46.6575 322.888 47.0804L322.013 47.2213C322.013 47.2213 322.742 48.3489 322.451 49.1945C322.159 50.0402 321.43 51.0268 321.43 51.0268L305.981 53L304.669 49.7583H304.523C303.065 50.0402 301.608 49.1945 301.171 47.7851C300.879 46.5166 301.608 45.1072 302.92 44.6843C301.899 44.2615 301.171 43.2749 301.025 42.1474C300.733 40.1741 302.045 38.4828 303.94 38.2009Z" fill="black"/>
<path d="M280.761 84.8728C279.383 78.7682 280.367 65.1807 287.85 59.273C297.696 51.5931 296.515 48.6393 319.949 48.4424C319.949 48.4424 345.154 53.7593 346.336 77.3898C346.336 77.3898 345.548 90.1897 343.185 94.1281C342.004 93.9312 340.822 93.9312 340.428 94.325C337.868 96.885 339.05 100.626 336.49 100.43C334.127 100.036 333.733 97.8696 331.961 91.3712C330.188 84.6759 326.841 81.5251 317.585 86.4482C308.33 91.3712 304.195 87.2358 304.195 87.2358C304.195 87.2358 298.484 81.3282 297.303 75.4206C297.303 75.4206 294.349 87.0389 289.82 88.8112C285.487 90.5835 285.487 90.5835 285.487 90.5835L291.789 114.411C287.063 104.171 282.534 92.9465 280.761 84.8728Z" fill="black"/>
<path d="M317.784 116.577C322.904 116.577 327.039 112.048 327.039 106.338C327.039 100.627 322.904 96.0977 317.784 96.0977C312.664 96.0977 308.528 100.627 308.528 106.338C308.528 111.851 312.664 116.577 317.784 116.577ZM317.784 96.8853C322.313 96.8853 326.054 101.021 326.054 106.338C326.054 111.458 322.313 115.79 317.784 115.79C313.255 115.79 309.513 111.654 309.513 106.338C309.316 101.021 313.058 96.8853 317.784 96.8853Z" fill="black"/>
<path d="M293.956 116.577C299.273 116.577 303.605 112.048 303.605 106.338C303.605 100.627 299.273 96.0977 293.956 96.0977C288.639 96.0977 284.307 100.627 284.307 106.338C284.307 111.851 288.639 116.577 293.956 116.577ZM293.956 96.8853C298.682 96.8853 302.621 101.021 302.621 106.338C302.621 111.458 298.682 115.79 293.956 115.79C289.23 115.79 285.292 111.654 285.292 106.338C285.292 101.021 289.23 96.8853 293.956 96.8853Z" fill="black"/>
<path d="M333.274 97.3229L333.875 98.103L326.386 103.87L325.785 103.09L333.274 97.3229Z" fill="black"/>
<path d="M309.906 101.808L301.832 101.021L302.817 103.187C302.817 103.187 303.408 102.005 305.771 102.399C307.937 102.793 309.315 103.974 309.315 103.974L309.906 101.808Z" fill="black"/>
<path d="M302.677 196.046L325.126 195.061C325.323 195.061 325.717 194.864 325.717 194.667C325.717 194.47 331.23 166.704 332.412 158.827C333.594 151.148 337.926 135.985 337.926 135.788C337.926 135.394 337.926 135.197 337.532 135C337.138 135 336.941 135 336.744 135.394C336.744 135.591 332.412 150.754 331.23 158.434C330.049 165.72 325.323 189.941 324.535 193.682L303.071 194.47C302.677 191.123 300.905 173.203 300.905 164.735C301.102 155.48 304.252 139.529 304.449 139.332C304.449 138.938 304.252 138.742 304.055 138.545C303.661 138.545 303.465 138.742 303.268 138.938C303.268 139.135 299.92 155.086 299.723 164.538C299.526 173.793 301.889 194.667 301.889 194.864C302.086 195.652 302.283 196.046 302.677 196.046Z" fill="#242424"/>
<path d="M322.903 128.392C325.857 127.014 328.023 125.242 329.992 123.272C329.992 123.272 321.131 137.845 314.829 139.42C308.528 140.995 308.725 133.119 308.725 133.119C308.725 133.119 310.3 134.694 322.903 128.392Z" fill="black"/>
<path d="M338.278 179.198C339.657 182.94 340.641 186.878 341.035 190.817C341.035 191.407 340.247 191.407 340.247 190.817C339.854 186.878 338.869 183.137 337.491 179.395C337.294 179.001 338.081 178.607 338.278 179.198Z" fill="black"/>
<path d="M273.493 190.62C275.068 185.303 276.84 179.986 277.234 174.275C277.234 173.684 278.219 173.684 278.219 174.275C277.825 179.986 276.25 185.5 274.477 190.816C274.28 191.407 273.296 191.21 273.493 190.62Z" fill="black"/>
<path d="M347.336 251.074C349.108 249.302 349.502 246.742 349.305 244.182C349.108 241.425 348.123 238.668 347.139 236.108C346.942 235.518 347.73 235.321 347.927 235.911C349.699 240.834 351.865 247.333 347.73 251.665C347.533 252.256 346.942 251.665 347.336 251.074Z" fill="black"/>
<path d="M347.928 218.779C348.125 218.779 348.322 218.779 348.518 218.779C348.715 218.779 348.715 218.779 348.912 218.976C350.882 219.37 352.654 219.961 354.623 220.355C355.608 220.552 356.592 220.945 357.774 221.142C358.758 221.339 359.94 221.733 361.121 221.536C361.515 221.536 361.712 221.339 361.909 220.945C362.106 220.552 361.909 220.158 361.712 219.961C361.318 219.173 360.334 218.779 359.546 218.582C357.774 217.992 355.805 217.598 354.032 217.204C353.048 216.81 352.063 216.416 351.078 216.022C350.094 215.432 349.306 215.038 348.125 215.038C347.534 215.038 347.534 214.25 348.125 214.053C349.109 214.053 350.094 214.447 350.882 214.841C351.866 215.432 352.654 215.826 353.835 216.219C355.805 216.81 357.971 217.007 359.94 217.992C360.924 218.385 361.712 218.779 362.303 219.567C362.697 220.355 362.894 221.339 362.303 221.93C361.712 222.718 360.334 222.718 359.349 222.521C358.168 222.324 356.986 221.93 356.001 221.733C353.441 221.142 350.685 220.355 348.125 219.764C347.337 219.567 347.337 218.779 347.928 218.779Z" fill="#6D6A4B"/>
<path d="M317.192 107.716C315.887 107.716 314.829 106.217 314.829 104.368C314.829 102.519 315.887 101.021 317.192 101.021C318.497 101.021 319.555 102.519 319.555 104.368C319.555 106.217 318.497 107.716 317.192 107.716Z" fill="black"/>
<path d="M295.137 107.716C293.832 107.716 292.774 106.217 292.774 104.368C292.774 102.519 293.832 101.021 295.137 101.021C296.442 101.021 297.5 102.519 297.5 104.368C297.5 106.217 296.442 107.716 295.137 107.716Z" fill="black"/>
<path d="M249.662 261.905H343.397C345.957 261.905 347.926 259.739 347.926 257.376V194.952C347.926 192.392 345.76 190.226 343.397 190.226H249.465C246.905 190.226 244.936 192.392 244.936 194.952V257.179C244.936 259.739 247.102 261.905 249.662 261.905ZM343.397 191.604C345.366 191.604 346.941 193.179 346.941 195.149V257.376C346.941 259.345 345.366 260.92 343.397 260.92H249.465C247.496 260.92 245.921 259.345 245.921 257.376V194.952C245.921 192.982 247.496 191.407 249.465 191.407H343.397V191.604Z" fill="black"/>
<path d="M249.662 261.905H343.397C345.957 261.905 347.926 259.739 347.926 257.376V194.952C347.926 192.392 345.76 190.226 343.397 190.226H249.465C246.905 190.226 244.936 192.392 244.936 194.952V257.179C244.936 259.739 247.102 261.905 249.662 261.905Z" fill="black"/>
<path d="M352.961 187.221C355.164 187.221 356.926 188.989 356.926 191.198V261.023C356.926 263.232 355.164 265 352.961 265H247.891C245.688 265 243.926 263.232 243.926 261.023V190.977C243.926 188.768 245.688 187 247.891 187H352.961V187.221Z" fill="#242424"/>
<path d="M317.193 102.596C315.224 102.596 313.452 102.793 311.679 103.187C313.058 101.808 315.027 101.021 317.193 101.021C319.359 101.021 321.329 101.808 322.707 103.187C321.132 102.793 319.162 102.596 317.193 102.596Z" fill="black"/>
<path d="M294.743 102.399C292.971 102.399 291.199 102.596 289.623 102.99C290.805 101.808 292.577 101.021 294.743 101.021C296.713 101.021 298.485 101.808 299.863 102.99C298.288 102.596 296.713 102.399 294.743 102.399Z" fill="black"/>
<path d="M314.238 96.2943C314.238 96.2943 312.268 92.9466 314.828 92.9466C317.388 92.9466 322.311 92.5527 324.871 94.1281C327.431 95.7035 326.447 96.6881 326.447 96.6881C326.447 96.6881 322.902 94.522 319.554 94.7189C316.404 95.1127 314.238 96.2943 314.238 96.2943Z" fill="black"/>
<path d="M297.304 96.8851C297.304 96.8851 299.273 93.5374 296.713 93.5374C294.153 93.5374 289.23 93.1436 286.67 94.7189C284.11 96.2943 285.095 97.2789 285.095 97.2789C285.095 97.2789 288.64 95.1128 291.987 95.3097C295.335 95.7035 297.304 96.8851 297.304 96.8851Z" fill="black"/>
<path d="M303.997 121.5C305.572 122.485 307.541 122.879 309.314 122.682C311.086 122.485 312.661 121.5 313.843 120.319C314.434 119.728 315.221 120.516 314.631 121.106C311.677 124.257 306.951 124.848 303.209 122.485C302.618 122.091 303.209 121.106 303.997 121.5Z" fill="black"/>
<path d="M304 113.427C304.196 113.23 304.59 113.427 304.787 113.624C304.984 114.018 305.181 114.608 305.575 115.002C305.772 115.396 306.166 115.593 306.56 115.593C306.953 115.593 307.15 115.396 307.544 115.199C307.938 115.002 307.938 114.608 308.135 114.214C308.135 113.821 308.529 113.624 308.923 113.821C309.316 113.821 309.316 114.214 309.316 114.608C309.119 115.79 307.938 116.774 306.756 116.774C305.378 116.774 304.393 115.396 303.803 114.214C303.606 114.018 303.606 113.624 304 113.427Z" fill="black"/>
<path d="M317.978 104.171C317.543 104.171 317.19 103.818 317.19 103.383C317.19 102.948 317.543 102.596 317.978 102.596C318.413 102.596 318.766 102.948 318.766 103.383C318.766 103.818 318.413 104.171 317.978 104.171Z" fill="white"/>
<path d="M287.865 104.171C287.43 104.171 287.077 103.818 287.077 103.383C287.077 102.948 287.43 102.596 287.865 102.596C288.3 102.596 288.652 102.948 288.652 103.383C288.652 103.818 288.3 104.171 287.865 104.171Z" fill="white"/>
</svg>
