<svg width="400" height="280" viewBox="0 0 400 280" fill="none" xmlns="http://www.w3.org/2000/svg">
<path d="M340.035 107.337C339.807 117.257 345.961 127.388 355.468 130.669C360.644 132.454 366.316 132.19 371.613 133.565C376.909 134.927 382.313 138.869 382.353 144.279C382.38 147.863 380.315 156.011 391.216 160.785C400.2 164.727 398.055 186.008 370.218 194.963C361.69 197.701 367.188 190.81 358.324 189.461C349.568 188.138 341.63 183.244 335.583 176.856C329.535 170.467 325.271 162.624 321.933 154.529C318.098 145.205 315.416 134.901 317.789 125.113C320.163 115.326 328.905 106.477 340.048 107.35L340.035 107.337Z" fill="black"/>
<path d="M285.61 84.6665C288.547 98.766 291.376 113.95 285.516 127.137C283.612 131.422 280.85 135.324 279.281 139.742C277.417 144.993 277.364 150.707 277.873 156.235C278.839 166.711 282.017 177.451 289.485 184.95C296.954 192.45 309.438 195.73 318.65 190.426C326.735 185.783 330.423 175.797 329.913 166.592C329.404 157.386 325.421 148.736 321.211 140.496C311.114 120.696 299.328 101.729 285.597 84.6665H285.61Z" fill="black"/>
<path d="M306.289 153.444C306.557 145.931 305.605 141.712 305.31 136.091C308.381 134.57 311.706 133.512 315.099 132.969C316.628 132.731 318.344 132.639 319.524 133.538C320.261 134.107 323.748 131.078 324.11 131.911C326.59 137.652 326.805 145.826 329.286 151.566C329.473 152.002 338.176 151.209 338.363 151.658C339.168 153.523 338.497 169.091 337.894 169.475C306.088 190.333 290.762 160.494 290.762 160.494C290.762 160.494 296.528 157.002 306.303 153.418L306.289 153.444Z" fill="white"/>
<path d="M316.463 177.397C314.17 177.397 311.917 177.119 309.731 176.537C296.819 173.178 290.356 160.864 290.302 160.732C290.181 160.507 290.262 160.216 290.49 160.084C290.543 160.044 296.282 156.605 305.803 153.087C305.95 148.299 305.602 144.847 305.266 141.5C305.092 139.781 304.918 138.022 304.81 136.117C304.81 135.919 304.904 135.733 305.092 135.641C308.23 134.093 311.568 133.022 315.028 132.48C316.53 132.242 318.434 132.096 319.802 133.115C320.123 133.115 321.089 132.559 321.679 132.215C322.886 131.514 323.596 131.131 324.133 131.303C324.334 131.369 324.495 131.514 324.575 131.713C325.836 134.636 326.533 138.194 327.19 141.646C327.833 144.966 328.491 148.391 329.657 151.182C330.274 151.261 332.285 151.182 333.787 151.116C338.292 150.931 338.614 150.997 338.815 151.46C339.392 152.782 339.218 159.197 339.151 161.142C338.869 169.435 338.359 169.765 338.158 169.898C330.556 174.884 323.288 177.384 316.463 177.384V177.397ZM291.415 160.705C292.635 162.835 298.83 172.702 309.986 175.585C318.367 177.754 327.619 175.585 337.488 169.144C338.011 167.649 338.507 154.33 337.93 152.055C337.287 151.976 335.302 152.055 333.8 152.121C329.308 152.293 328.987 152.24 328.786 151.777C327.525 148.854 326.828 145.296 326.171 141.844C325.527 138.524 324.857 135.085 323.69 132.295C323.355 132.387 322.631 132.797 322.148 133.088C320.847 133.842 319.815 134.437 319.185 133.948C318.125 133.128 316.476 133.26 315.149 133.472C311.904 133.988 308.753 134.98 305.789 136.395C305.897 138.141 306.057 139.728 306.218 141.408C306.567 144.86 306.929 148.431 306.755 153.457C306.755 153.655 306.621 153.841 306.433 153.907C298.28 156.896 292.876 159.859 291.388 160.705H291.415Z" fill="black"/>
<path d="M282.325 88.1183C283.264 95.0754 284.685 102.39 282.862 109.32C281.869 113.103 281.963 132.321 297.598 137.784C305.818 140.654 315.258 140.072 323.732 134.993C329.484 131.554 336.457 120.867 335.076 110.26C339.836 111.556 344.543 108.395 344.596 104.175C344.623 101.742 341.914 98.6995 339.032 98.8318C336.806 98.9376 336.537 98.9641 334.848 100.234C333.695 95.2606 332.998 90.1949 333.091 84.4678C327.688 78.5952 319.012 75.5928 310.35 74.3098C307.48 73.8865 304.544 73.622 301.634 73.9791C293.307 75.0108 281.387 80.9627 282.352 88.1051L282.325 88.1183Z" fill="white"/>
<path d="M307.72 140.033C304.274 140.033 300.801 139.451 297.422 138.26C288.894 135.271 285.153 128.354 283.504 123.063C281.546 116.767 281.894 111 282.364 109.188C283.946 103.197 283.048 96.8612 282.176 90.7373C282.055 89.8776 281.935 89.0311 281.814 88.1846C281.546 86.2006 282.176 84.2166 283.691 82.2856C287.392 77.5505 295.652 74.2306 301.539 73.5032C304.743 73.1064 307.961 73.4767 310.388 73.8338C317.549 74.8919 327.351 77.5372 333.438 84.1505C333.519 84.2431 333.572 84.3621 333.572 84.4944C333.492 89.4279 333.988 94.1895 335.155 99.4007C336.415 98.5145 336.965 98.4484 338.99 98.3558C340.384 98.2897 341.873 98.9113 343.079 100.049C344.326 101.239 345.091 102.826 345.077 104.202C345.05 106.226 344.018 108.143 342.248 109.453C340.398 110.828 337.971 111.358 335.637 110.921C336.697 121.74 329.644 132.044 323.972 135.43C318.863 138.485 313.312 140.033 307.707 140.033H307.72ZM282.82 88.0656C282.927 88.9121 283.048 89.7586 283.168 90.6051C284.053 96.8215 284.965 103.263 283.343 109.453C282.914 111.106 282.592 116.741 284.469 122.785C286.038 127.851 289.631 134.491 297.757 137.334C306.352 140.337 315.47 139.371 323.462 134.597C328.879 131.356 335.946 120.867 334.565 110.352C334.538 110.194 334.605 110.022 334.739 109.916C334.86 109.81 335.034 109.77 335.208 109.81C337.448 110.418 339.861 109.995 341.658 108.659C343.173 107.535 344.058 105.908 344.085 104.189C344.098 103.078 343.455 101.768 342.395 100.763C341.39 99.8107 340.183 99.2949 339.043 99.3478C336.898 99.4536 336.724 99.4669 335.141 100.657C335.007 100.763 334.819 100.79 334.672 100.723C334.511 100.67 334.39 100.538 334.35 100.366C333.063 94.8508 332.5 89.8644 332.567 84.6796C326.667 78.397 317.187 75.8443 310.254 74.8258C307.881 74.4687 304.757 74.1248 301.673 74.4951C295.987 75.1962 288.036 78.3837 284.496 82.9072C283.155 84.6267 282.592 86.3594 282.82 88.0656Z" fill="black"/>
<path d="M316.462 116.212C311.421 116.212 306.969 112.112 306.245 106.557C305.467 100.565 309.302 95.1289 314.8 94.4279C320.311 93.7269 325.419 98.0255 326.197 104.017C326.975 110.009 323.14 115.445 317.642 116.146C317.253 116.199 316.851 116.225 316.462 116.225V116.212ZM315.98 95.3406C315.631 95.3406 315.282 95.367 314.934 95.4067C309.986 96.0416 306.526 100.975 307.237 106.424C307.948 111.874 312.56 115.776 317.508 115.154C322.456 114.519 325.916 109.586 325.205 104.136C324.548 99.0837 320.512 95.3406 315.98 95.3406Z" fill="black"/>
<path d="M288.197 117.481C285.93 117.481 283.731 116.661 281.894 115.113C279.749 113.301 278.368 110.722 277.992 107.826C277.617 104.929 278.287 102.085 279.896 99.7971C281.519 97.4956 283.879 96.0407 286.547 95.6968C289.229 95.3529 291.884 96.173 294.043 97.9983C296.188 99.8103 297.569 102.389 297.945 105.286C298.32 108.183 297.65 111.026 296.041 113.315C294.418 115.616 292.058 117.071 289.39 117.415C288.988 117.468 288.599 117.494 288.197 117.494V117.481ZM287.741 96.6095C287.392 96.6095 287.03 96.6359 286.681 96.6756C284.295 96.9798 282.176 98.2892 280.728 100.353C279.266 102.442 278.649 105.048 278.998 107.693C279.347 110.339 280.607 112.706 282.565 114.359C284.496 116 286.882 116.727 289.269 116.423C291.656 116.119 293.775 114.809 295.223 112.746C296.684 110.656 297.301 108.05 296.953 105.405C296.604 102.76 295.343 100.392 293.386 98.7389C291.736 97.3502 289.765 96.6095 287.741 96.6095Z" fill="black"/>
<path d="M341.313 45.5812C338.43 36.2036 328.387 30.9262 318.88 33.7699C309.373 36.6136 304.023 46.5203 306.906 55.8979C309.788 65.2756 319.832 70.5529 329.339 67.7092C338.846 64.8655 344.196 54.9589 341.313 45.5812Z" fill="black"/>
<path d="M334.216 100.975C329.657 93.9914 326.868 88.9653 325.366 80.4739C308.524 90.3145 292.528 91.8487 276.397 91.2403C276.061 88.5289 276.625 82.5505 277.778 79.9845C280.58 73.7019 284.053 68.2526 293.801 63.954C300.627 60.9515 309.812 58.9411 317.2 59.9992C324.535 61.0441 330.85 64.9592 335.986 69.6546C340.076 73.3977 343.522 79.5348 344.742 85.5926C345.788 90.7906 344.487 94.6131 342.141 99.9037C340.813 99.2027 339.566 98.4885 338.037 98.7794C336.509 99.0704 335.517 99.8376 334.229 100.988L334.216 100.975Z" fill="black"/>
<path d="M309.772 127.52C308.578 127.52 307.479 127.163 306.607 126.448C306.393 126.276 306.366 125.959 306.54 125.747C306.715 125.536 307.036 125.509 307.251 125.681C308.431 126.647 310.187 126.792 311.957 126.065C313.915 125.258 315.524 123.697 316.49 121.674C316.61 121.422 316.905 121.317 317.16 121.436C317.415 121.555 317.522 121.846 317.401 122.097C316.329 124.345 314.545 126.078 312.346 126.977C311.475 127.335 310.603 127.507 309.772 127.507V127.52Z" fill="black"/>
<path d="M315.751 105.749C315.644 104.876 314.785 104.268 313.86 104.387C312.935 104.506 312.264 105.313 312.385 106.173C312.492 107.045 313.351 107.654 314.276 107.535C315.201 107.416 315.871 106.609 315.751 105.749Z" fill="black"/>
<path d="M290.587 107.06C290.479 106.187 289.621 105.578 288.696 105.697C287.771 105.817 287.1 106.623 287.221 107.483C287.328 108.356 288.187 108.964 289.112 108.845C290.037 108.726 290.707 107.92 290.587 107.06Z" fill="black"/>
<path d="M300.038 117.112C300.038 117.112 299.917 117.112 299.864 117.085L297.571 116.225C297.302 116.12 296.806 115.934 296.619 115.458C296.391 114.876 296.793 114.347 297.007 114.069C298.751 111.755 299.341 108.766 298.563 106.054C298.482 105.79 298.643 105.512 298.912 105.446C299.18 105.366 299.461 105.525 299.528 105.79C300.386 108.792 299.743 112.112 297.812 114.665C297.597 114.956 297.557 115.061 297.557 115.101C297.557 115.128 297.638 115.181 297.933 115.3L300.226 116.159C300.48 116.252 300.614 116.543 300.521 116.794C300.44 116.993 300.252 117.112 300.051 117.112H300.038Z" fill="black"/>
<path d="M297.047 103.608C296.779 103.608 296.551 103.396 296.551 103.118C296.524 101.61 298.026 100.566 299.515 100.195C301.968 99.5736 304.771 100.208 306.635 101.809C306.849 101.994 306.863 102.298 306.688 102.51C306.501 102.721 306.192 102.735 305.978 102.563C304.355 101.174 301.928 100.618 299.769 101.161C298.656 101.439 297.543 102.192 297.57 103.105C297.57 103.383 297.356 103.608 297.074 103.608H297.047Z" fill="black"/>
<path d="M325.115 100.974C324.833 100.974 324.619 100.75 324.605 100.485C324.605 100.207 324.833 99.9825 325.102 99.9825L333.429 99.9561C333.71 99.9561 333.925 100.181 333.938 100.445C333.938 100.723 333.71 100.948 333.442 100.948L325.115 100.974Z" fill="black"/>
<path d="M334.956 106.649C334.674 106.649 334.459 106.425 334.459 106.147C334.486 104.136 334.071 102.086 333.279 100.235C333.172 99.9832 333.279 99.6923 333.548 99.5864C333.802 99.4806 334.097 99.5864 334.205 99.851C335.049 101.835 335.492 104.017 335.465 106.173C335.465 106.451 335.237 106.663 334.956 106.663V106.649Z" fill="black"/>
<path d="M395.949 217.633C388.587 197.78 384.524 178.192 367.16 163.894C358.819 157.029 348.763 152.162 337.178 151.421C336.467 162.492 323.433 169.78 316.447 170.6C312.653 171.05 298.533 172.901 298.533 156.487C293.92 158.299 278.594 160.151 272.453 178.787C269.945 186.406 265.44 215.57 250.596 232.474C247.096 236.468 243.851 209.896 238.81 211.668C233.862 213.401 228.163 216.311 227.788 221.482C227.493 225.516 230.858 229.021 234.626 230.609C242.712 234.034 245.742 250.634 254.445 251.851C263.496 253.107 277.964 256.4 288.905 222.646C294.497 228.162 298.104 234.087 304.379 237.434C322.468 247.049 382.647 257.855 392.449 259.562C393.267 259.707 395.117 259.046 395.439 258.292C397.504 253.544 402.895 236.336 395.949 217.633Z" fill="#8F8B54"/>
<path d="M392.69 260.064C392.57 260.064 392.462 260.064 392.369 260.038C380.797 258.014 322.133 247.419 304.151 237.857C299.82 235.555 296.736 232.037 293.464 228.32C292.097 226.76 290.689 225.146 289.133 223.572C284.467 237.645 278.809 246.441 271.836 250.462C265.762 253.967 259.956 253.133 255.289 252.459C254.981 252.419 254.672 252.366 254.377 252.326C249.483 251.639 246.319 246.388 243.275 241.296C240.7 237.01 238.045 232.579 234.438 231.045C230.657 229.445 226.983 225.847 227.305 221.416C227.613 217.091 231.328 213.745 238.662 211.179C239.185 210.994 239.708 211.033 240.218 211.285C242.511 212.422 244.294 218.03 246.01 223.44C247.231 227.315 248.759 232.13 249.845 232.354C249.953 232.381 250.087 232.301 250.234 232.116C262.061 218.638 267.357 197.026 270.2 185.413C270.924 182.464 271.501 180.123 271.997 178.602C277.374 162.307 289.898 158.577 295.932 156.778C296.911 156.487 297.755 156.236 298.372 155.984C298.52 155.918 298.707 155.945 298.841 156.037C298.976 156.13 299.056 156.289 299.056 156.447C299.056 161.434 300.397 165.137 303.038 167.452C307.276 171.155 313.819 170.375 316.286 170.084H316.421C323.125 169.277 336.011 162.148 336.708 151.355C336.708 151.223 336.775 151.104 336.883 151.011C336.976 150.919 337.11 150.879 337.245 150.892C348.012 151.58 358.203 155.812 367.508 163.471C381.95 175.361 387.22 190.757 392.811 207.065C393.978 210.451 395.171 213.956 396.458 217.422C402.734 234.352 399.086 251.176 395.935 258.437C395.533 259.363 393.79 260.024 392.731 260.024L392.69 260.064ZM288.905 222.144C289.04 222.144 289.16 222.196 289.267 222.289C291.078 224.075 292.687 225.9 294.229 227.672C297.433 231.323 300.45 234.762 304.621 236.984C322.481 246.48 380.998 257.048 392.543 259.059C393.213 259.178 394.782 258.543 394.983 258.093C395.319 257.313 403.216 238.65 395.493 217.805C394.206 214.327 392.999 210.822 391.832 207.422C386.294 191.26 381.065 175.983 366.838 164.277C357.841 156.871 348.012 152.717 337.647 151.963C337.057 158.114 332.913 162.571 329.494 165.256C325.552 168.351 320.457 170.639 316.528 171.116H316.394C313.806 171.433 306.927 172.253 302.355 168.245C299.619 165.851 298.171 162.135 298.05 157.201C297.514 157.386 296.884 157.572 296.2 157.77C289.898 159.648 278.151 163.153 272.935 178.946C272.439 180.427 271.876 182.755 271.165 185.678C268.309 197.37 262.973 219.141 250.985 232.791C250.475 233.373 249.966 233.413 249.631 233.346C248.048 233.016 246.855 229.497 245.045 223.757C243.543 219.022 241.679 213.123 239.762 212.184C239.494 212.052 239.252 212.038 238.984 212.118C232.065 214.538 228.579 217.607 228.297 221.495C228.016 225.41 231.488 228.717 234.827 230.132C238.729 231.786 241.478 236.362 244.133 240.78C247.204 245.885 250.1 250.713 254.512 251.321C254.82 251.361 255.115 251.414 255.437 251.454C264.421 252.75 277.977 254.694 288.436 222.461C288.49 222.302 288.624 222.17 288.798 222.13C288.838 222.13 288.879 222.117 288.919 222.117L288.905 222.144Z" fill="black"/>
<path d="M265.013 257.829C278.717 258.12 292.435 258.411 306.138 258.702L306.192 251.811L260.414 250.713L265.013 257.842V257.829Z" fill="black"/>
<path d="M373.984 236.658C357.435 236.34 340.783 235.787 324.116 235.235C322.618 235.03 315.185 234.169 313.35 233.949C311.799 233.762 310.298 233.198 308.847 232.528C303.794 230.203 292.982 225.673 290.688 227.253C285.313 229.28 280.572 233.867 276.953 239.588C274.918 242.802 273.372 248.029 274.308 248.887C274.908 249.429 275.775 249.616 276.38 249.007C278.687 242.759 283.038 237.515 288.449 234.455C285.946 236.178 283.633 238.253 281.587 240.6C279.502 242.978 277.624 245.812 277.271 249.133C277.242 249.388 277.227 249.673 277.358 249.892C277.676 250.417 278.412 250.071 278.851 249.663C279.702 248.848 290.605 238.086 292.747 238.263C289.972 239.58 280.317 249.106 280.318 250.078C280.325 250.542 280.413 251.031 280.697 251.378C281.08 251.855 281.716 251.992 282.274 251.864C282.833 251.735 283.328 251.399 283.796 251.035C286.943 248.7 289.798 245.81 293.237 244.031C294.957 243.149 297.067 242.579 298.686 243.721C295.609 245.185 292.771 247.222 290.428 249.851C290.057 250.271 289.743 250.764 289.51 251.282C289.155 252.075 288.774 253.199 289.338 253.818C290.254 254.825 290.981 254.27 291.71 253.745C294.629 251.405 297.618 249.451 300.772 247.879C301.757 247.388 302.919 246.949 303.858 247.567C304.659 248.086 308.564 250.55 316.38 250.661C319.039 250.696 321.644 251.362 325.011 252.234C369.343 263.784 382.649 268.579 393.027 263.046C395.06 261.956 395.705 260.716 394.85 256.774C392.544 246.253 390.475 240.3 374.039 236.686L373.984 236.658Z" fill="white"/>
<path d="M384.195 265.866C375.822 266.227 363.726 263.024 340.971 256.991C336.178 255.716 330.748 254.275 324.843 252.735C321.707 251.913 318.992 251.207 316.32 251.173C309.041 251.068 304.976 248.925 303.554 247.999C302.808 247.523 301.765 247.927 300.925 248.352C297.85 249.876 294.912 251.783 291.941 254.155L291.863 254.203C291.159 254.697 290.105 255.46 288.922 254.165C288.007 253.173 288.754 251.525 288.999 250.976C289.269 250.381 289.608 249.858 290.018 249.391C292.079 247.088 294.56 245.171 297.368 243.689C296.052 243.357 294.545 243.9 293.403 244.488C291.158 245.647 289.11 247.336 287.128 248.977C286.117 249.814 285.08 250.666 284.026 251.445C283.519 251.825 282.972 252.193 282.334 252.34C281.536 252.524 280.747 252.274 280.279 251.681C279.952 251.261 279.779 250.685 279.777 250.012C279.766 249.759 280.029 249.328 280.436 248.787C280.139 249.069 279.83 249.367 279.521 249.664C279.34 249.837 279.211 249.962 279.147 250.025C278.773 250.385 278.184 250.724 277.63 250.644C277.319 250.597 277.07 250.413 276.897 250.137C276.738 249.874 276.699 249.592 276.701 249.322C276.701 249.322 276.675 249.339 276.675 249.353C275.955 250.088 274.826 250.047 273.946 249.247C272.522 247.962 274.746 241.958 276.505 239.189C280.451 232.961 285.27 228.639 290.446 226.666C293.165 224.963 304.324 229.777 309.008 231.938C310.185 232.486 311.744 233.136 313.375 233.32C313.874 233.373 314.792 233.483 315.898 233.615C318.906 233.964 323.007 234.445 324.141 234.606C340.418 235.145 357.246 235.706 373.983 236.031C374.009 236.029 374.036 236.028 374.076 236.027C390.824 239.717 392.957 245.907 395.282 256.547C396.136 260.474 395.631 262.156 393.19 263.443C390.501 264.876 387.675 265.641 384.192 265.791L384.195 265.866ZM302.638 246.678C303.12 246.657 303.607 246.755 304.049 247.051C305.389 247.92 309.275 249.966 316.313 250.067C319.093 250.111 321.848 250.83 325.052 251.664C330.956 253.204 336.401 254.645 341.193 255.919C373.139 264.383 383.905 267.24 392.748 262.52C394.44 261.609 395.142 260.771 394.303 256.888C392.013 246.427 390.066 240.796 373.927 237.23C357.191 236.92 340.376 236.359 324.099 235.804C324.086 235.805 324.072 235.806 324.045 235.807C322.965 235.659 318.649 235.157 315.802 234.816C314.696 234.684 313.779 234.574 313.28 234.521C311.526 234.312 309.872 233.621 308.64 233.061C301.067 229.573 292.643 226.571 290.936 227.737C290.909 227.753 290.87 227.769 290.83 227.786C285.904 229.644 281.124 233.949 277.342 239.916C275.205 243.284 274.116 247.893 274.596 248.456C274.96 248.784 275.532 248.984 275.934 248.667C278.281 242.388 282.747 237.035 288.185 233.973C288.421 233.843 288.721 233.95 288.852 234.199C288.984 234.462 288.918 234.794 288.683 234.954C286.22 236.661 283.933 238.704 281.912 241.02C279.341 243.958 278.018 246.558 277.743 249.218C277.714 249.473 277.731 249.562 277.759 249.591C277.828 249.633 278.174 249.573 278.509 249.244C278.574 249.182 278.702 249.057 278.87 248.885C290.58 237.535 292.223 237.673 292.762 237.71C292.991 237.73 293.187 237.916 293.225 238.183C293.263 238.436 293.14 238.696 292.929 238.795C290.312 240.029 281.392 248.866 280.804 250.163C280.819 250.521 280.899 250.817 281.055 251.019C281.283 251.309 281.704 251.425 282.142 251.317C282.607 251.207 283.037 250.904 283.479 250.571C284.519 249.793 285.543 248.956 286.541 248.135C288.563 246.462 290.649 244.742 292.986 243.534C294.653 242.669 297.024 241.924 298.907 243.264C299.059 243.377 299.162 243.582 299.144 243.777C299.126 243.987 299.013 244.171 298.841 244.239C295.698 245.736 292.967 247.753 290.739 250.243C290.406 250.616 290.129 251.047 289.909 251.535C289.48 252.481 289.388 253.143 289.628 253.417C290.219 254.049 290.572 253.84 291.314 253.299L291.366 253.267C294.363 250.864 297.353 248.925 300.493 247.369C301.137 247.057 301.875 246.74 302.625 246.708L302.638 246.678Z" fill="black"/>
<path d="M148.16 194.911L237.557 195.387L268.384 257.816L179.805 257.604L148.16 194.911Z" fill="white"/>
<path d="M268.382 258.319L179.816 258.094C179.628 258.094 179.454 257.988 179.373 257.816L147.701 195.122C147.621 194.964 147.634 194.792 147.728 194.633C147.822 194.488 147.983 194.395 148.157 194.395L237.568 194.884C237.756 194.884 237.93 194.99 238.024 195.162L268.837 257.591C268.918 257.75 268.904 257.922 268.811 258.068C268.717 258.213 268.556 258.306 268.382 258.306V258.319ZM180.124 257.102L267.577 257.314L237.246 195.876L148.962 195.4L180.111 257.102H180.124Z" fill="black"/>
<path d="M204.705 220.344C202.171 220.093 199.396 220.767 198.363 223.069C197.331 225.37 198.122 228.253 199.999 229.946C201.876 231.639 204.665 232.182 207.159 231.639C208.5 231.335 209.841 230.7 210.605 229.576C211.142 228.796 211.37 227.843 211.37 226.891C211.397 223.796 209.962 220.86 204.692 220.344H204.705Z" fill="white"/>
<path d="M205.252 232.341C203.147 232.341 201.122 231.627 199.661 230.317C197.556 228.426 196.818 225.291 197.904 222.871C198.896 220.662 201.458 219.538 204.756 219.855C210.683 220.424 211.903 223.995 211.89 226.892C211.89 228.016 211.581 229.048 211.032 229.841C210.066 231.243 208.457 231.852 207.277 232.116C206.607 232.262 205.936 232.341 205.266 232.341H205.252ZM203.75 220.794C202.249 220.794 199.781 221.138 198.816 223.268C197.904 225.304 198.534 227.963 200.331 229.577C202.007 231.098 204.582 231.693 207.036 231.151C208.457 230.833 209.57 230.172 210.173 229.286C210.737 228.479 210.857 227.527 210.857 226.878C210.884 223.268 208.792 221.231 204.635 220.834C204.421 220.807 204.113 220.794 203.724 220.794H203.75Z" fill="black"/>
<path d="M364.507 236.704C364.292 236.704 364.104 236.572 364.024 236.361C357.802 217.79 354.289 206.032 354.289 180.558C354.289 180.28 354.517 180.055 354.799 180.055C355.08 180.055 355.308 180.28 355.308 180.558C355.308 205.873 358.808 217.566 364.989 236.043C365.07 236.308 364.936 236.585 364.668 236.665C364.614 236.678 364.56 236.691 364.507 236.691V236.704Z" fill="black"/>
<path d="M288.909 223.134C288.748 223.134 288.587 223.055 288.493 222.923C280.488 211.574 282.66 203.242 284.752 195.2C285.798 191.166 286.884 186.986 286.723 182.41C286.723 182.132 286.924 181.907 287.206 181.894C287.487 181.881 287.715 182.093 287.729 182.37C287.903 187.092 286.803 191.338 285.731 195.438C283.599 203.625 281.587 211.363 289.324 222.354C289.485 222.579 289.432 222.883 289.204 223.042C289.11 223.108 289.016 223.134 288.922 223.134H288.909Z" fill="black"/>
<path d="M315.039 195.188C306.927 195.188 298.801 194.461 290.917 192.516C290.823 192.49 290.769 192.411 290.796 192.318C290.823 192.225 290.903 192.172 290.997 192.199C311.017 197.146 332.618 194.17 351.659 191.538C351.753 191.538 351.833 191.591 351.847 191.683C351.847 191.776 351.793 191.855 351.699 191.868C340.114 193.469 327.577 195.201 315.026 195.201L315.039 195.188Z" fill="black"/>
<path d="M322.359 210.583C310.439 210.583 298.505 209.194 286.96 206.403C286.866 206.377 286.812 206.298 286.839 206.205C286.866 206.112 286.946 206.059 287.04 206.086C308.226 211.191 330.726 211.615 352.1 207.303C352.194 207.29 352.274 207.342 352.301 207.435C352.315 207.528 352.261 207.607 352.167 207.633C342.392 209.604 332.376 210.596 322.359 210.596V210.583Z" fill="black"/>
<path d="M397.321 241.837C397.321 241.837 397.227 241.824 397.187 241.784C389.691 233.081 377.476 228.703 366.065 230.621C365.971 230.634 365.89 230.581 365.877 230.489C365.864 230.396 365.917 230.317 366.011 230.304C377.543 228.359 389.879 232.79 397.442 241.573C397.495 241.639 397.495 241.745 397.428 241.811C397.401 241.837 397.361 241.851 397.321 241.851V241.837Z" fill="black"/>
<path d="M395.954 233.808C395.954 233.808 395.914 233.808 395.887 233.808C394.68 233.332 393.688 232.459 392.736 231.613C392.401 231.322 392.052 231.018 391.717 230.74C389.585 229.02 387.024 227.896 384.302 227.499C384.208 227.486 384.141 227.407 384.154 227.314C384.154 227.222 384.248 227.155 384.342 227.169C387.117 227.579 389.746 228.716 391.918 230.475C392.266 230.766 392.615 231.071 392.95 231.361C393.876 232.182 394.841 233.028 395.994 233.491C396.075 233.531 396.128 233.623 396.088 233.703C396.061 233.769 395.994 233.808 395.927 233.808H395.954Z" fill="black"/>
<path d="M347.5 258.075H146" stroke="black"/>
</svg>
