<svg width="400" height="280" viewBox="0 0 400 280" fill="none" xmlns="http://www.w3.org/2000/svg">
<g clip-path="url(#clip0_1104_2620)">
<path d="M279.511 124.307L278.387 144.412C278.387 144.412 281.784 156.93 298.389 153.864C298.389 153.864 309.297 154.171 312.542 144.131L312.337 123.286C312.363 123.286 293.689 129.544 279.511 124.307Z" fill="white"/>
<path d="M269.192 83.3316L269.473 76.5364L269.958 71.1717L270.495 65.6027C270.495 65.6027 270.878 65.3217 271.287 65.475L275.502 65.9603C275.502 65.9603 285.388 67.161 287.457 66.8544C287.457 66.8544 299.515 67.2121 303.884 66.2413C303.884 66.2413 310.858 65.8326 317.27 61.8219L318.113 61.1577C318.113 61.1577 318.751 60.5446 319.39 61.2854L320.846 62.8437C320.846 62.8437 321.05 62.9459 320.948 63.6101V80.4705L322.583 80.2917C322.583 80.2917 325.521 81.6967 326.824 82.9995C326.824 82.9995 332.521 87.2657 328.612 93.0136C328.612 93.0136 326.185 96.6411 322.226 98.9913C322.226 98.9913 320.718 99.8599 320.616 101.239C320.616 101.239 320.054 106.093 320.054 106.119C320.054 106.17 319.467 111.279 315.584 117.563C315.584 117.563 312.441 122.57 310.602 122.928C310.602 122.928 301.584 127.22 293.103 126.402C293.103 126.402 288.479 126.045 286.078 125.304C286.078 125.304 280.049 123.694 276.447 121.063C276.447 121.063 272.59 115.571 272.615 114.37C272.615 114.37 271.517 114.447 269.831 109.337C269.831 109.337 268.426 100.166 266.816 99.0424L263.751 96.3601L259.229 89.2583C259.229 89.2583 257.773 84.098 262.141 82.8973C262.141 82.9484 268.86 82.3864 269.192 83.3316Z" fill="white"/>
<path d="M245.536 145.051C245.536 145.051 227.143 146.762 221.855 156.878C221.855 156.878 218.176 161.758 216.49 167.914L212.761 178.618L208.699 188.658L203.079 202.734C203.079 202.734 198.174 219.364 195.67 223.324L191.787 231.09C191.787 231.09 187.955 238.191 186.499 243.198C186.499 243.198 183.919 252.676 186.039 256.252C186.039 256.252 187.215 262.511 198.327 265.168C198.327 265.168 211.407 268.566 218.457 268.259L234.27 268.898L378.375 268.514C378.375 268.514 399.783 265.883 397.995 249.355L397.458 245.957L391.072 227.59L384.098 207.511L377.635 187.687L372.628 170.443C372.628 170.443 370.38 161.298 366.037 156.904C366.037 156.904 360.698 150.517 356.125 148.78C356.125 148.78 349.227 145.153 344.246 144.948C344.246 144.948 342.969 144.489 342.585 143.875L347.414 153.149L350.275 159.152L325.291 162.524L340.746 166.305L337.681 175.834L333.976 185.541L333.133 187.968L313.999 210.474L288.147 240.874L278.21 223.937L257.492 189.245L249.445 166.152L264.338 162.013L240.197 158.335L244.157 149.547L245.536 145.051Z" fill="#8F8B54" stroke="black" stroke-miterlimit="10"/>
<path d="M273.154 125.432C273.154 125.432 265.439 130.975 275.81 190.038L288.124 240.849L314.64 190.038L317.323 168.783L319.085 147.58V136.391C319.085 136.391 318.472 128.778 317.706 127.143L316.582 124.665L312.903 123.644L312.929 143.237C312.929 143.237 313.184 147.759 308.611 151.208C308.611 151.208 302.353 156.547 291.291 154.912C291.291 154.912 282.376 153.609 279.336 148.934C279.336 148.934 277.573 147.095 277.445 142.675L278.263 123.644L276.398 122.596C276.398 122.596 276.781 124.359 274.303 125.176L273.154 125.432Z" fill="#F9F9F9"/>
<path d="M273.154 125.432C273.154 125.432 256.166 129.161 245.513 145.46L241.579 157.262L241.477 157.543L268.785 161.707L250.597 166.765L257.519 188.684L288.098 240.823L275.121 186.129C275.121 186.155 266.537 130.541 273.154 125.432Z" fill="#8F8B54"/>
<path d="M378.379 268.489C378.073 268.515 377.843 268.719 377.741 268.974H406.965L383.565 268.745C389.543 267.084 394.269 263.916 396.875 259.676C399.787 254.95 400.093 249.023 397.743 242.458L396.21 238.166C390.054 221.025 379.759 192.311 373.781 169.754C368.212 148.653 350.483 144.591 345.169 143.85C344.378 143.722 343.688 143.288 343.305 142.624C336.254 130.515 321.642 124.92 315.664 123.081C314.719 122.775 313.927 122.57 313.339 122.417C320.466 115.009 321.667 105.531 321.846 101.699C321.871 101.112 322.178 100.55 322.714 100.217C328.692 96.2323 331.553 92.2216 331.221 88.3386C330.864 83.7658 326.291 80.828 324.452 79.8317C330.097 73.3431 331.988 67.1354 330.046 61.3364C329.842 60.7489 329.612 60.1869 329.382 59.6759C329.127 59.165 328.871 58.6286 328.565 58.1432C327.849 56.9936 326.955 55.844 325.882 54.7456C325.652 54.5156 325.448 54.3113 325.244 54.1325C325.014 53.9281 324.809 53.7237 324.605 53.5449L323.43 52.5997C323.302 52.4975 323.149 52.3953 323.047 52.2931L322.51 51.9099C322.434 51.8589 322.357 51.8078 322.28 51.7311C322.178 51.6289 322.05 51.5012 321.974 51.3735C321.718 50.9647 321.59 50.4794 321.616 50.0195C321.897 45.8555 320.313 41.8959 317.018 38.5749C316.583 38.1406 316.149 37.7319 315.664 37.3232C315.434 37.1188 315.178 36.94 314.948 36.7612C314.438 36.3524 313.927 35.9948 313.441 35.6882C312.675 35.1773 311.857 34.7175 311.014 34.3343C310.452 34.0533 309.89 33.8234 309.303 33.5679C308.741 33.338 308.153 33.1336 307.566 32.9548C303.351 31.6775 299.212 31.6775 295.866 32.9804C289.428 35.5094 284.421 36.5568 279.567 37.5531C276.962 38.0896 274.484 38.6005 271.929 39.3413C265.262 41.2317 260.612 34.7686 260.561 34.6919L259.999 33.9L259.514 34.743C253.561 44.7315 258.313 54.0047 259.922 56.5849C260.152 56.9681 260.28 57.4023 260.306 57.9133C260.331 58.7307 260.306 59.7015 260.254 60.6978C260.127 64.2231 259.973 68.5915 261.915 72.9854C263.754 77.175 265.44 80.2149 266.386 81.8499H263.908C261.838 81.8499 259.973 82.8717 259.028 84.5067C256.014 89.7692 263.294 97.2286 266.564 100.192C267.126 100.703 267.51 101.393 267.612 102.185C269.426 114.166 274.203 120.143 275.199 121.267V122.8C275.199 123.311 274.841 123.771 274.305 123.899H274.024L273.973 123.95C258.134 127.577 248.963 138.613 245.744 143.211C245.285 143.876 244.544 144.284 243.701 144.335C240.278 144.54 231.515 145.689 224.592 151.974C218.793 157.236 216.75 163.214 213.94 171.465C212.407 175.961 210.67 181.045 207.987 187.151C204.385 195.3 202.75 200.511 201.167 205.569C199.429 211.138 197.794 216.401 193.554 224.754C188.01 235.688 181.726 248.078 184.817 256.712C186.043 260.161 188.751 262.843 192.839 264.632C197.922 266.88 205.279 268.208 212.458 269H234.274V268.898C231.362 268.898 205.356 268.745 193.349 263.457C189.543 261.77 187.142 259.42 186.018 256.278C183.105 248.154 189.262 236.02 194.678 225.316C198.944 216.861 200.605 211.573 202.367 205.952C203.926 200.945 205.56 195.76 209.137 187.687C211.845 181.53 213.607 176.421 215.14 171.9C217.899 163.801 219.892 157.977 225.435 152.944C232.077 146.916 240.456 145.817 243.777 145.638C245.003 145.562 246.076 144.949 246.766 143.978C249.168 140.58 257.981 129.391 273.181 125.482C273.206 125.482 273.232 125.457 273.257 125.457C273.615 125.355 273.973 125.278 274.356 125.201H274.56L274.611 125.15C275.71 124.895 276.476 123.924 276.476 122.826V120.808L276.297 120.629C276.246 120.578 270.779 114.728 268.863 102.031C268.71 100.958 268.199 100.013 267.407 99.2978C265.032 97.1519 257.495 89.7691 260.127 85.1709C260.842 83.9191 262.273 83.1527 263.908 83.1527H268.634L268.582 83.0761L268.148 82.3863L267.918 82.0032L267.688 81.62C267.407 81.1346 267.024 80.4704 266.564 79.6529C265.849 78.3501 264.981 76.664 264.01 74.5948C263.703 73.9562 263.397 73.2664 263.065 72.5511C262.732 71.7847 262.451 71.0184 262.247 70.2775V70.252C261.787 68.5915 261.557 66.931 261.506 65.3472C261.43 63.7633 261.481 62.2305 261.532 60.8511C261.557 59.8292 261.608 58.8329 261.583 57.9899C261.583 57.6323 261.532 57.2746 261.43 56.9681C261.404 56.8403 261.353 56.7126 261.302 56.5849C261.225 56.406 261.123 56.2272 261.021 56.0484C259.565 53.6726 255.273 45.3702 260.178 36.3013C261.762 38.0896 266.283 42.3813 272.312 40.6697C274.816 39.9544 277.268 39.4435 279.848 38.907C284.498 37.9363 289.786 36.8378 296.325 34.2832C299.391 33.0825 303.248 33.0825 307.183 34.3087C307.745 34.4876 308.307 34.6664 308.817 34.8963C309.354 35.1262 309.916 35.3561 310.427 35.6116C311.219 35.9948 311.985 36.4291 312.726 36.9144C313.186 37.1954 313.646 37.5275 314.157 37.9363C314.386 38.1151 314.616 38.2939 314.821 38.4727C315.255 38.8304 315.664 39.2391 316.073 39.6223C318.065 41.6405 320.364 44.9103 320.339 49.3043V49.3298C320.339 49.5853 320.339 49.8407 320.313 50.0962C320.313 50.1473 320.313 50.2239 320.313 50.275C320.313 50.9647 320.518 51.6545 320.875 52.2165C321.028 52.4464 321.233 52.6763 321.437 52.8552C321.539 52.9573 321.642 53.0084 321.744 53.1106L322.229 53.4427C322.357 53.5449 322.51 53.6471 322.663 53.7493L323.813 54.6945C323.992 54.8477 324.171 55.0266 324.375 55.2054C324.579 55.3842 324.758 55.5886 325.014 55.8185C325.984 56.8148 326.802 57.8622 327.492 58.9351C327.773 59.3949 328.028 59.8803 328.258 60.3657C328.488 60.8511 328.692 61.362 328.871 61.8984C330.685 67.3908 328.743 73.3431 323.021 79.7296L322.944 79.8062L322.714 80.0361L322.382 80.3682L322.638 80.4704L323.225 80.7259C323.276 80.7514 329.637 83.7147 330.021 88.5685C330.302 91.9916 327.619 95.5936 322.05 99.2978C321.207 99.8854 320.671 100.779 320.645 101.776C320.466 105.608 319.24 115.264 311.73 122.443L311.474 122.698L310.887 123.26L311.755 123.439L312.062 123.515C312.062 123.515 312.215 123.541 312.471 123.618C312.624 123.643 312.803 123.694 313.007 123.745C313.569 123.899 314.386 124.129 315.383 124.435C315.766 124.563 316.2 124.691 316.66 124.844C316.686 124.844 316.711 124.869 316.762 124.869C323.225 127.041 335.973 132.508 342.308 143.39C342.896 144.387 343.892 145.051 345.093 145.23C350.202 145.945 367.267 149.853 372.657 170.214C378.66 192.847 388.955 221.587 395.137 238.728L396.67 243.02C398.918 249.278 398.663 254.694 395.904 259.139C392.685 264.044 386.324 267.493 378.379 268.489Z" fill="black"/>
<path d="M294.819 127.731C288.969 127.731 282.276 126.3 275.48 121.957L276.17 120.884C292.239 131.128 307.668 124.512 312.011 122.238L312.599 123.362C309.917 124.767 303.249 127.731 294.819 127.731Z" fill="black"/>
<path d="M295.082 155.167C295.005 155.167 294.929 155.167 294.852 155.167C290.637 155.116 286.575 154.043 282.769 151.948C279.346 150.058 277.328 146.405 277.481 142.445L278.298 123.209L279.55 123.26L278.733 142.496C278.579 145.919 280.419 149.215 283.356 150.85C286.958 152.842 290.816 153.864 294.827 153.915C299.118 153.941 303.155 152.893 306.935 150.773C309.822 149.163 311.61 146.098 311.61 142.777V122.851H312.888V142.777C312.888 146.558 310.844 150.032 307.548 151.871C303.742 154.017 299.425 155.167 295.082 155.167Z" fill="black"/>
<path d="M350.505 264.197H236.876C235.905 264.197 235.113 264.989 235.113 265.96V267.186C235.113 268.157 235.905 268.949 236.876 268.949H350.505C351.475 268.949 352.242 268.157 352.242 267.186V265.96C352.242 264.989 351.475 264.197 350.505 264.197ZM350.99 267.161C350.99 267.442 350.76 267.646 350.505 267.646H236.876C236.62 267.646 236.391 267.442 236.391 267.161V265.934C236.391 265.679 236.62 265.449 236.876 265.449H350.505C350.76 265.449 350.99 265.653 350.99 265.934V267.161Z" fill="#242424"/>
<path d="M350.505 264.197H236.876C235.905 264.197 235.113 264.989 235.113 265.96V267.186C235.113 268.157 235.905 268.949 236.876 268.949H350.505C351.475 268.949 352.242 268.157 352.242 267.186V265.96C352.242 264.989 351.475 264.197 350.505 264.197ZM350.99 267.161C350.99 267.442 350.76 267.646 350.505 267.646H236.876C236.62 267.646 236.391 267.442 236.391 267.161V265.934C236.391 265.679 236.62 265.449 236.876 265.449H350.505C350.76 265.449 350.99 265.653 350.99 265.934V267.161Z" fill="black" fill-opacity="0.2"/>
<path d="M245.106 147.35L243.216 152.74C242.552 154.529 241.99 156.342 241.223 158.105L240.866 157.466L266.616 161.4L268.788 161.733L266.667 162.32L250.139 166.918L250.471 166.305L254.201 177.699C254.865 179.589 255.35 181.531 255.887 183.447L257.471 189.22L255.325 183.625C254.635 181.761 253.869 179.896 253.281 177.98L249.551 166.586L249.398 166.126L249.884 165.999L266.412 161.4L266.463 162.32L240.713 158.386L240.125 158.309L240.329 157.747C241.019 155.959 241.888 154.273 242.68 152.536L245.106 147.35Z" fill="black"/>
<path d="M232.387 149.521C232.898 151.105 233.306 152.74 233.741 154.35C234.022 155.985 234.277 157.645 234.507 159.306C234.992 162.601 235.427 165.922 235.733 169.243C236.04 172.564 236.295 175.911 236.372 179.257C236.397 180.918 236.423 182.604 236.346 184.29C236.142 185.95 235.861 187.611 235.503 189.246C235.478 188.403 235.478 187.559 235.503 186.742C235.503 185.925 235.427 185.082 235.401 184.239C235.478 182.578 235.452 180.918 235.427 179.283C235.376 175.962 235.095 172.666 234.788 169.345C234.481 166.05 234.047 162.754 233.562 159.459C233.332 157.824 233.076 156.163 232.795 154.528L232.387 149.521Z" fill="black"/>
<path d="M344.709 147.759L347.417 153.123L348.771 155.806C349.23 156.7 349.614 157.62 350.022 158.539L350.278 159.127L349.639 159.203L322.611 162.856L322.663 161.937L340.34 166.203L340.851 166.331L340.698 166.816L337.351 176.779C336.764 178.44 336.1 180.049 335.461 181.684L333.545 186.589L334.976 181.531C335.461 179.845 335.921 178.159 336.457 176.473L339.829 166.51L340.162 167.123L322.484 162.856L320.031 162.269L322.535 161.937L349.562 158.284L349.205 158.948C348.796 158.028 348.362 157.134 348.004 156.189L346.906 153.379L344.709 147.759Z" fill="black"/>
<path d="M356.894 150.594C356.894 152.229 356.843 153.838 356.818 155.447L356.307 160.25C355.975 163.469 355.694 166.662 355.438 169.881C355.183 173.1 354.953 176.319 354.825 179.537C354.748 181.147 354.697 182.756 354.672 184.366L354.442 186.767C354.391 187.559 354.34 188.376 354.263 189.194C354.008 187.584 353.854 185.975 353.727 184.34C353.752 182.731 353.803 181.096 353.88 179.486C354.008 176.242 354.237 173.023 354.493 169.804C354.748 166.586 355.055 163.367 355.362 160.148L355.872 155.32C356.205 153.761 356.511 152.178 356.894 150.594Z" fill="black"/>
<path d="M330.349 64.1206C329.608 57.9895 324.959 53.9788 322.277 52.1395C321.587 51.6541 321.204 50.8366 321.255 49.9681C321.587 44.9866 319.058 40.1584 314.332 36.6586C308.788 32.5712 301.227 31.1662 295.964 33.2354C289.501 35.7645 284.468 36.8119 279.615 37.8337C277.009 38.3702 274.531 38.8811 272.002 39.6219C269.984 40.1839 268.144 40.0307 266.535 39.4942C265.156 39.0344 263.955 38.2935 262.984 37.5527C261.298 36.2499 260.302 34.8959 260.276 34.8448L259.995 34.4361L259.74 34.8448C253.864 44.68 258.565 53.8 260.149 56.3546C260.404 56.7889 260.557 57.2742 260.583 57.8362C260.608 58.6537 260.583 59.6245 260.532 60.6208C260.404 64.1206 260.251 68.4634 262.167 72.8062C264.159 77.3278 265.948 80.4955 266.816 82.0028L266.867 82.0794L268.553 82.9991L269.192 83.3312L269.882 66.573C269.882 66.2409 270.035 65.9599 270.29 65.7555C270.546 65.5511 270.878 65.449 271.184 65.5C304.497 69.7151 315.098 63.8906 318.113 61.1828C318.445 60.8762 319.007 60.9018 319.313 61.2339L320.693 62.69C320.846 62.8433 320.923 63.0732 320.923 63.3031V80.5211L322.558 80.3423L323.63 80.2145L323.707 80.1124C328.74 74.5433 330.962 69.1787 330.349 64.1206ZM302.555 65.7555C302.504 65.7555 302.478 65.7555 302.427 65.781C295.402 66.6241 285.388 66.6752 271.261 64.8869C271.057 64.8614 270.827 64.8614 270.622 64.9125C270.495 64.938 270.393 64.9891 270.265 65.0402C270.137 65.1169 269.984 65.1935 269.882 65.2957C269.498 65.6278 269.269 66.0876 269.243 66.573L268.579 82.3093L267.864 81.9261L267.634 81.7984L267.327 81.6196C266.433 80.1124 264.696 76.9702 262.754 72.5763C260.889 68.3612 261.043 64.095 261.17 60.6718C261.196 59.65 261.247 58.6793 261.222 57.8362C261.196 57.1976 261.017 56.5589 260.711 56.048C259.203 53.5956 254.758 44.961 260.072 35.5857C260.225 35.7645 260.43 36.0199 260.685 36.3009C262.397 38.1147 266.356 41.5123 271.542 40.3883C271.747 40.3372 271.976 40.2861 272.181 40.235C274.454 39.5964 276.677 39.111 279.027 38.6256C279.257 38.5745 279.512 38.5235 279.768 38.4724C284.647 37.4505 289.68 36.4031 296.194 33.8485C301.252 31.8559 308.558 33.261 313.949 37.1951C316.375 38.9833 318.189 41.0525 319.288 43.3261C320.309 45.3953 320.769 47.6434 320.616 49.9425C320.565 50.5301 320.693 51.1176 320.974 51.6286C321.204 52.0373 321.51 52.4205 321.919 52.6759C323.401 53.6722 325.444 55.3583 327.105 57.6574C327.13 57.683 327.156 57.7341 327.181 57.7596C327.692 58.5004 328.152 59.2924 328.561 60.1354C328.561 60.1354 328.586 60.1609 328.586 60.1865C329.148 61.4127 329.557 62.7411 329.736 64.2227C330.324 69.0509 328.178 74.2368 323.375 79.6014L322.915 79.6525L321.587 79.8058V63.3031C321.587 62.9199 321.434 62.5367 321.178 62.2557L319.799 60.7996C319.237 60.212 318.317 60.1609 317.704 60.6974C316.963 61.3616 315.405 62.4856 312.492 63.5586C310.142 64.4016 306.923 65.219 302.555 65.7555Z" fill="black"/>
<path d="M206.707 234.948C208.93 234.488 211.203 234.386 213.477 234.411C215.75 234.462 218.024 234.743 220.246 235.203C222.469 235.663 224.666 236.378 226.735 237.324C228.83 238.218 230.746 239.469 232.534 240.823C231.512 240.338 230.567 239.699 229.52 239.291L228.012 238.575L226.454 237.988C224.359 237.221 222.239 236.557 220.042 236.123C217.871 235.638 215.648 235.331 213.426 235.127C211.203 234.948 208.955 234.897 206.707 234.948Z" fill="black"/>
<path d="M380.116 234.947C377.868 234.896 375.62 234.947 373.397 235.151C371.175 235.356 368.952 235.688 366.781 236.147C364.61 236.582 362.464 237.246 360.369 238.012L358.811 238.6L357.304 239.315C356.256 239.724 355.336 240.363 354.289 240.848C356.077 239.468 357.993 238.217 360.088 237.348C362.157 236.403 364.354 235.713 366.577 235.228C368.799 234.768 371.073 234.461 373.346 234.436C375.62 234.385 377.894 234.513 380.116 234.947Z" fill="black"/>
<path d="M275.822 190.037C274.723 184.57 273.804 179.078 272.986 173.56C272.169 168.042 271.505 162.499 270.968 156.955C270.483 151.412 270.125 145.817 270.202 140.248C270.253 137.464 270.406 134.653 270.84 131.895C271.07 130.515 271.377 129.136 271.862 127.833C272.373 126.555 273.037 125.201 274.289 124.512C273.063 125.227 272.45 126.606 272.016 127.884C271.581 129.187 271.326 130.566 271.147 131.946C270.789 134.705 270.687 137.489 270.687 140.248C270.713 145.817 271.07 151.361 271.607 156.904C272.092 162.448 272.756 167.965 273.472 173.509C274.187 179.001 274.953 184.519 275.822 190.037Z" fill="black"/>
<path d="M314.648 190.037C315.415 184.468 316.079 178.874 316.718 173.279C317.331 167.685 317.918 162.09 318.327 156.47C318.787 150.875 319.068 145.255 319.042 139.635C319.017 136.825 318.915 134.015 318.557 131.231C318.378 129.851 318.123 128.446 317.714 127.118C317.28 125.815 316.718 124.41 315.466 123.669C316.743 124.359 317.356 125.764 317.867 127.067C318.353 128.395 318.634 129.8 318.864 131.179C319.298 133.964 319.451 136.8 319.528 139.61C319.655 145.255 319.349 150.875 318.94 156.496C318.48 162.116 317.893 167.71 317.177 173.305C316.462 178.925 315.619 184.494 314.648 190.037Z" fill="black"/>
<path d="M316.662 124.742C316.662 124.742 334.953 130.055 342.515 143.697L345.197 148.704L349.08 158.309L319.983 162.243L339.628 166.995L333.088 187.943L288.102 240.848L314.695 189.654C314.695 189.654 317.122 174.94 317.863 167.685L318.757 158.641C318.757 158.641 319.855 144.514 319.549 141.525C319.549 141.525 319.344 131.869 318.731 130.515L316.662 124.742Z" fill="#8F8B54"/>
<path d="M344.354 264.387H243.421C238.516 264.387 234.531 260.402 234.531 255.497V201.901C234.531 196.996 238.516 193.011 243.421 193.011H344.354C349.258 193.011 353.244 196.996 353.244 201.901V255.497C353.244 260.402 349.258 264.387 344.354 264.387Z" fill="#242424"/>
<path d="M293.879 237.973C299 237.973 303.152 233.821 303.152 228.7C303.152 223.578 299 219.427 293.879 219.427C288.757 219.427 284.605 223.578 284.605 228.7C284.605 233.821 288.757 237.973 293.879 237.973Z" fill="white"/>
<path d="M294.486 103.487C294.077 103.461 293.745 103.129 293.771 102.695C293.796 102.286 294.154 101.954 294.563 101.98C297.705 102.133 298.114 101.75 298.165 101.699C298.522 100.702 293.771 96.1041 295.355 89.0279C295.457 88.6192 295.84 88.3637 296.249 88.4659C296.658 88.5681 296.913 88.9513 296.811 89.36C295.125 96.7939 300.873 100.217 299.417 102.516C298.957 103.231 297.986 103.538 295.917 103.538C295.508 103.538 295.023 103.512 294.486 103.487Z" fill="black"/>
<path d="M301.557 110.436C301.404 110.052 300.944 109.899 300.587 110.052C297.981 111.202 295.401 111.432 292.897 110.768C291.927 110.538 291.569 111.968 292.514 112.198C295.426 112.965 298.339 112.658 301.174 111.406C301.557 111.253 301.736 110.819 301.557 110.436Z" fill="black"/>
<path d="M305.646 86.1416C304.599 86.1416 303.781 87.1634 303.781 88.4407C303.781 89.718 304.624 90.7399 305.646 90.7399C306.668 90.7399 307.511 89.718 307.511 88.4407C307.537 87.189 306.694 86.1416 305.646 86.1416Z" fill="black"/>
<path d="M285.318 87.0103C284.271 87.0103 283.453 88.0321 283.453 89.3094C283.453 90.5867 284.296 91.6085 285.318 91.6085C286.365 91.6085 287.183 90.5867 287.183 89.3094C287.208 88.0321 286.365 87.0103 285.318 87.0103Z" fill="black"/>
<path d="M302.044 80.9561C304.292 80.1641 306.642 80.1897 309.248 81.0327C309.631 81.1604 310.065 80.9561 310.193 80.5473C310.321 80.1641 310.116 79.7299 309.708 79.6021C306.795 78.6569 304.062 78.6314 301.533 79.5255C301.15 79.6532 300.945 80.0875 301.073 80.4707C301.226 80.8794 301.661 81.0838 302.044 80.9561Z" fill="black"/>
<path d="M287.415 79.8575C285.064 79.6786 282.74 80.3173 280.492 81.7734C279.879 82.1822 280.16 83.1529 280.9 83.1529C281.488 83.1529 283.608 81.0581 287.287 81.3391C288.283 81.3902 288.385 79.9341 287.415 79.8575Z" fill="black"/>
<path d="M292.164 111.969C292.164 111.969 297.989 118.789 301.463 111.202L292.164 111.969Z" fill="black"/>
<path d="M259.818 35.7137C259.818 35.7137 253.789 44.6548 261.146 56.6869C261.146 56.6869 260.175 69.7154 263.828 74.8757L267.686 82.6672H268.375L269.423 66.2667L270.164 64.9894C270.164 64.9894 303.552 70.6351 318.573 60.6977C318.573 60.6977 320.132 60.4933 321.051 62.9968V80.2148L323.095 80.1637C323.095 80.1637 332.956 70.7883 329.047 61.413C329.047 61.413 326.85 55.4607 321.077 51.6288C321.077 51.6288 320.004 51.4245 320.234 49.0998C320.234 49.0998 321.154 41.2316 313.107 36.0968C313.107 36.0968 303.68 30.349 297.396 33.0824L278.568 38.4471C278.568 38.4471 268.401 41.4871 267.532 39.9543C267.558 39.9798 264.033 38.0383 259.818 35.7137Z" fill="black"/>
<path d="M270.087 64.1978L270.495 65.2963L268.912 82.6676H267.711L269.09 63.7891L270.087 64.1978Z" fill="black"/>
<rect x="235" y="264" width="118" height="5" rx="2" fill="#D9D9D9"/>
</g>
<defs>
<clipPath id="clip0_1104_2620">
<rect width="400" height="280" fill="white" transform="matrix(-1 0 0 1 400 0)"/>
</clipPath>
</defs>
</svg>
